<svg width="45" height="53" viewBox="0 0 45 53" fill="none" xmlns="http://www.w3.org/2000/svg">
<path d="M43.5727 41.1759C42.7736 43.0219 41.8278 44.7211 40.732 46.2833C39.2382 48.413 38.0152 49.8872 37.0726 50.7058C35.6115 52.0495 34.046 52.7377 32.3697 52.7768C31.1662 52.7768 29.7149 52.4344 28.0254 51.7397C26.3305 51.0483 24.7728 50.7058 23.3486 50.7058C21.8548 50.7058 20.2528 51.0483 18.5393 51.7397C16.8231 52.4344 15.4406 52.7964 14.3835 52.8323C12.776 52.9008 11.1736 52.1931 9.57424 50.7058C8.55342 49.8155 7.27657 48.2891 5.74696 46.1268C4.10581 43.8177 2.75656 41.1401 1.69953 38.0874C0.567488 34.79 0 31.5971 0 28.5059C0 24.965 0.765131 21.911 2.29768 19.3517C3.50212 17.296 5.10446 15.6745 7.10991 14.484C9.11536 13.2936 11.2823 12.687 13.6158 12.6482C14.8927 12.6482 16.5671 13.0431 18.6479 13.8194C20.7228 14.5982 22.0551 14.9931 22.6392 14.9931C23.0759 14.9931 24.5559 14.5313 27.065 13.6106C29.4376 12.7568 31.4402 12.4032 33.0807 12.5425C37.526 12.9013 40.8657 14.6536 43.0867 17.8107C39.111 20.2196 37.1444 23.5935 37.1835 27.9218C37.2194 31.2931 38.4424 34.0986 40.8461 36.3262C41.9354 37.3601 43.1519 38.1591 44.5054 38.7266C44.2119 39.5778 43.9021 40.3932 43.5727 41.1759ZM33.3774 1.05704C33.3774 3.69948 32.4121 6.16672 30.4878 8.45038C28.1657 11.1652 25.3569 12.7339 22.3111 12.4864C22.2723 12.1694 22.2498 11.8357 22.2498 11.4851C22.2498 8.9484 23.3541 6.23358 25.3152 4.01385C26.2943 2.88996 27.5395 1.95546 29.0495 1.21C30.5563 0.475653 31.9816 0.0695443 33.322 0C33.3611 0.353254 33.3774 0.706529 33.3774 1.057V1.05704Z" fill="black"/>
</svg>
