<svg width="1705" height="1602" viewBox="0 0 1705 1602" fill="none" xmlns="http://www.w3.org/2000/svg">
<g filter="url(#filter0_n_1059_5575)">
<path d="M881.536 10.3957C892.144 0.925567 908.895 -2.72931 925.503 2.18088C948.129 8.87029 962.334 29.045 958.557 48.2258C964.264 47.1235 970.475 47.3579 976.645 49.1819C994.975 54.6015 1005.99 71.9966 1001.25 88.0354C999.728 93.1832 996.765 97.5643 992.841 100.963C1015.02 108.789 1028.21 129.809 1022.52 149.061C1017.55 165.862 999.783 175.974 980.14 174.625C982.211 181.022 982.471 187.81 980.525 194.392C974.636 214.31 950.76 224.828 927.091 217.991C921.036 237.823 897.078 248.218 873.411 241.221C870.048 240.227 866.872 238.933 863.912 237.391C855.873 243.265 845.315 246.75 833.801 246.57C809.125 246.183 789.362 229.11 789.503 208.375C764.873 207.835 745.224 190.67 745.549 169.902C745.656 163.04 747.931 156.638 751.817 151.152C732.667 146.576 718.73 131.622 719.004 114.104C719.318 94.0304 738.178 77.9047 761.684 77.0569C758.952 72.6415 757.433 67.5757 757.517 62.2082C757.779 45.4853 773.485 32.1709 792.598 32.4699C799.03 32.5706 805.029 34.2007 810.147 36.9563C812.268 17.5228 831.847 2.50893 855.438 2.87815C865.221 3.0313 874.232 5.80861 881.536 10.3957Z" fill="#4A6FFE"/>
</g>
<g filter="url(#filter1_n_1059_5575)">
<path d="M948.528 240.656C951.238 238.236 955.518 237.303 959.761 238.557C965.542 240.266 969.172 245.421 968.207 250.322C969.665 250.04 971.252 250.1 972.828 250.566C977.511 251.951 980.326 256.395 979.115 260.493C978.726 261.808 977.969 262.928 976.966 263.796C982.633 265.795 986.002 271.166 984.548 276.085C983.279 280.378 978.74 282.961 973.721 282.617C974.25 284.251 974.317 285.985 973.82 287.667C972.315 292.756 966.214 295.443 960.167 293.697C958.62 298.764 952.499 301.42 946.452 299.632C945.593 299.378 944.781 299.047 944.025 298.653C941.971 300.154 939.273 301.044 936.332 300.998C930.027 300.9 924.977 296.537 925.013 291.24C918.72 291.102 913.7 286.716 913.783 281.41C913.811 279.656 914.392 278.021 915.385 276.619C910.492 275.45 906.931 271.629 907.001 267.153C907.081 262.025 911.9 257.905 917.906 257.688C917.208 256.56 916.82 255.266 916.841 253.894C916.908 249.621 920.921 246.22 925.804 246.296C927.448 246.322 928.98 246.738 930.288 247.442C930.83 242.477 935.832 238.641 941.86 238.735C944.359 238.774 946.662 239.484 948.528 240.656Z" fill="#4A6FFE"/>
</g>
<g filter="url(#filter2_n_1059_5575)">
<path d="M905.116 319.223C906.364 318.109 908.334 317.679 910.287 318.256C912.948 319.043 914.619 321.416 914.174 323.672C914.846 323.542 915.576 323.57 916.302 323.784C918.458 324.422 919.753 326.468 919.196 328.354C919.017 328.959 918.668 329.475 918.207 329.874C920.815 330.795 922.366 333.267 921.697 335.531C921.112 337.507 919.023 338.696 916.713 338.538C916.956 339.29 916.987 340.089 916.758 340.863C916.066 343.205 913.257 344.442 910.474 343.638C909.762 345.971 906.944 347.193 904.16 346.37C903.765 346.253 903.391 346.101 903.043 345.92C902.098 346.611 900.856 347.02 899.502 346.999C896.6 346.954 894.275 344.946 894.292 342.507C891.395 342.444 889.084 340.425 889.122 337.982C889.135 337.175 889.403 336.422 889.86 335.777C887.607 335.239 885.968 333.48 886 331.42C886.037 329.059 888.256 327.162 891.02 327.063C890.699 326.543 890.52 325.948 890.53 325.316C890.561 323.35 892.408 321.784 894.656 321.819C895.412 321.831 896.118 322.022 896.72 322.346C896.969 320.061 899.272 318.295 902.047 318.339C903.197 318.357 904.257 318.683 905.116 319.223Z" fill="#4A6FFE"/>
</g>
<g filter="url(#filter3_n_1059_5575)">
<path d="M1014.86 1158.51C984.804 1163.9 978.401 1133.64 978.401 1133.64L947.047 1031.11L981.055 1006.69C981.055 1006.69 1004.39 1025.16 1015.3 1041.74C1026.21 1058.32 1035.49 1069.94 1036.94 1091.59C1038.79 1119.09 1038.49 1154.28 1014.86 1158.51Z" fill="url(#paint0_linear_1059_5575)"/>
</g>
<g filter="url(#filter4_n_1059_5575)">
<path d="M956.521 1132.13L1027.76 1006.96C1027.76 1006.96 1013.43 989.29 1003.3 990.545C971.542 994.481 994.65 1008.43 982.182 991.852C969.467 974.947 964.253 980.58 815.066 918.444C784.268 905.617 734.799 891.956 734.799 891.956C677.385 863.834 613.356 853.031 621.729 956.799C627.349 1026.46 725.876 1011.82 807.647 1080.19C889.419 1148.55 861.547 1136.2 919.659 1133.64C933.137 1133.05 956.521 1132.13 956.521 1132.13Z" fill="#C8F55A"/>
</g>
<g filter="url(#filter5_n_1059_5575)">
<path d="M800.02 974.516C767.645 982.575 718.195 985.978 718.195 985.978C654.46 990.992 590.95 977.468 636.932 884.067C667.799 821.369 759.432 812.418 860.628 778.951C961.825 745.483 957.214 715.723 988.312 764.881C1029.52 830.016 895.963 950.636 800.02 974.516Z" fill="#C8F55A"/>
</g>
<g filter="url(#filter6_n_1059_5575)">
<path d="M892.714 1033.07C924.409 1032.88 929.534 998.443 929.534 998.443L956.994 879.796L920.176 859.936C920.176 859.936 896.745 884.897 886.196 905.266C875.647 925.635 866.547 940.246 866.153 964.253C865.653 994.743 867.784 1033.22 892.714 1033.07Z" fill="url(#paint1_linear_1059_5575)"/>
</g>
<g filter="url(#filter7_n_1059_5575)">
<path d="M923.029 1011.91L957.103 818.178C957.103 818.178 979.183 812.688 986.518 819.788C1009.51 842.041 982.661 839.271 1002.59 833.538C1022.92 827.69 1023.7 835.326 1180.23 875.488C1212.55 883.779 1260.28 902.641 1260.28 902.641C1323.06 914.736 1380.69 944.642 1311.56 1022.48C1265.14 1074.72 1174.43 1059.02 1067.98 1064.4C961.524 1069.79 969.549 1094.81 941.141 1044.05C934.552 1032.28 923.029 1011.91 923.029 1011.91Z" fill="#C8F55A"/>
</g>
<g filter="url(#filter8_n_1059_5575)">
<path d="M1165.36 995.643C1197.74 1003.7 1247.19 1007.11 1247.19 1007.11C1310.92 1012.12 1374.43 998.595 1328.45 905.194C1297.58 842.496 1205.95 833.545 1104.75 800.077C1003.56 766.61 1008.17 736.85 977.071 786.008C935.867 851.143 1069.42 971.763 1165.36 995.643Z" fill="#C8F55A"/>
</g>
<g filter="url(#filter9_n_1059_5575)">
<path d="M881.246 346.999C964.826 333.897 1026.96 403.58 1036.18 462.418C1053.89 575.424 1069.27 624.685 1069.27 624.685C976.076 616.323 757.771 725.187 719.724 665.605C719.724 665.605 764.049 557.705 759.845 494.253C755.642 430.8 797.666 360.101 881.246 346.999Z" fill="#4A6FFE"/>
</g>
<path d="M876.402 393.74C952.897 439.162 938.134 395.495 962.54 435.207C968.159 410.883 990.718 404.751 1000.76 408.648C1013.38 413.544 1017.65 432.844 1010.32 451.755C1002.98 470.666 994.666 480.798 982.051 475.903C980.699 475.378 979.353 474.701 978.035 473.889C974.636 517.143 945.436 553.193 905 559.532C856.773 567.092 810.827 529.525 802.378 475.624C797.816 446.521 828.175 401.3 876.402 393.74Z" fill="white"/>
<path fill-rule="evenodd" clip-rule="evenodd" d="M916.569 444.806C932.653 442.284 947.343 450.781 949.381 463.784C951.42 476.786 940.034 489.37 923.95 491.892C907.867 494.413 893.176 485.916 891.138 472.914C891.126 472.838 891.117 472.762 891.106 472.687L881.249 474.232L882.183 490.736L877.184 490.47L876.098 475.04L870.297 475.949C870.31 476.024 870.324 476.099 870.336 476.175C872.374 489.177 860.989 501.761 844.905 504.283C828.822 506.804 814.131 498.307 812.093 485.305C810.055 472.302 821.441 459.718 837.524 457.197C851.872 454.947 865.11 461.467 869.247 472.132L890.938 468.732C891.613 457.313 902.221 447.055 916.569 444.806ZM838.329 463.441C826.466 465.301 818.076 474.638 819.59 484.296C821.104 493.954 831.948 500.276 843.812 498.416C855.675 496.557 864.065 487.22 862.551 477.561C861.037 467.903 850.192 461.581 838.329 463.441ZM917.714 450.997C905.85 452.857 897.46 462.194 898.974 471.852C900.488 481.51 911.333 487.832 923.196 485.972C935.06 484.112 943.449 474.775 941.935 465.117C940.421 455.459 929.577 449.137 917.714 450.997Z" fill="#4A6FFE"/>
<rect x="915.656" y="502.363" width="29.3056" height="122.894" transform="rotate(-8.90912 915.656 502.363)" fill="white"/>
<path d="M1081.56 681.698C1081.56 681.698 1096.6 720.469 1094.25 741.238C1090.41 775.071 1091.02 758.718 1091.02 758.718C1091.02 758.718 1093.82 765.964 1097.18 769.708C1102.92 776.102 1108.41 785.739 1100.56 800.724C1091.73 817.581 835.54 794.711 829.884 780.939C824.225 767.166 830.171 759.633 843.048 758.717C849.183 758.281 857.083 752.551 857.083 752.551L832.682 602.998C832.682 602.998 956.167 562.813 1037.43 561.595C1048.78 561.424 1062.16 562.776 1062.16 562.776L1081.56 681.698Z" fill="#4A6FFE"/>
<path d="M952.534 359.012C956.888 348.381 981.155 350.423 1001.59 356.246C1001.59 350.092 997.579 355.652 1000.97 354.272C1007.47 351.631 1023.38 351.481 1029.44 366.401C1030.07 367.949 1030.63 369.491 1031.12 371.012C1042.9 380.267 1034.55 386.125 1031.13 394.471C1027.82 402.558 1023.53 412.01 1006.03 396.511C999.993 392.212 995.356 378.518 987.171 375.165C963.15 365.327 947.51 371.278 952.534 359.012Z" fill="white"/>
<path d="M1065.09 343.447L987.254 439.818C987.254 439.818 971.725 460.849 978.013 468.514C996.308 490.816 1006.33 469.48 1031.01 484.183C1064.74 504.284 1069.43 517.814 1069.43 517.812C1069.43 517.81 1125.48 627.676 1197.29 554.717C1225.97 525.575 1193.75 507.466 1185.52 473.498C1165.85 392.384 1164.13 403.307 1095.36 358.587C1084.28 351.382 1065.09 343.447 1065.09 343.447Z" fill="#4A6FFE"/>
<path d="M1207.83 519.477L1114.95 521.537C1114.95 521.537 1089.87 514.201 1085.81 518.901C1073.99 532.574 1095.96 542.142 1093.54 558.94C1092.82 563.908 1070.06 561.996 1044 561.249C1013.6 560.378 931.939 629.429 1033 650.116C1045.4 652.655 1056.82 648.237 1099.37 634.173C1162.29 613.371 1195.54 595.617 1205.59 548.397C1207.21 540.789 1207.83 519.477 1207.83 519.477Z" fill="#4A6FFE"/>
<path d="M802.355 384.976C794.441 376.648 772.567 387.353 755.639 400.19C753.407 394.456 759.159 398.183 755.495 398.129C748.483 398.024 733.604 403.653 733.363 419.758C733.338 421.429 733.377 423.068 733.47 424.664C725.852 437.559 735.759 439.99 741.972 446.528C747.991 452.863 755.416 460.116 766.101 439.326C770.17 433.129 769.524 418.686 775.936 412.593C794.752 394.712 811.485 394.585 802.355 384.976Z" fill="white"/>
<path d="M691.812 411.297L778.54 441.078C778.54 441.078 800.639 455.044 797.56 464.468C788.6 491.887 792.287 507.433 774.625 530.085C750.477 561.054 751.019 575.361 751.017 575.36C751.015 575.358 738.632 698.072 645.248 656.128C607.948 639.374 631.407 610.812 626.76 576.17C615.662 493.448 621.227 503.004 669.096 436.385C676.809 425.651 691.812 411.297 691.812 411.297Z" fill="#4A6FFE"/>
<path d="M630.705 647.22L712.198 602.627C712.198 602.627 730.269 583.743 736.136 585.787C753.203 591.731 738.941 610.995 749.432 624.337C752.534 628.283 771.297 615.261 793.505 601.598C819.405 585.665 924.638 604.709 847.414 673.098C837.933 681.494 825.832 683.368 781.949 692.429C717.045 705.83 679.377 707.048 647.089 671.157C641.887 665.374 630.705 647.22 630.705 647.22Z" fill="#4A6FFE"/>
<path d="M273.5 992L468 1120L198.5 1222L0 1032L273.5 992Z" fill="#FED94A"/>
<path d="M600.751 1285.05L791.784 1337.78L631.5 1566.5L247 1425L600.751 1285.05Z" fill="#FED94A"/>
<path d="M1291.75 1427.95L1175.92 1456.71L1284.4 1601.69L1555.34 1544.03L1291.75 1427.95Z" fill="#FED94A"/>
<path d="M1542.11 1124L1454 1181.88L1576.08 1228L1705 1124H1542.11Z" fill="#FED94A"/>
<defs>
<filter id="filter0_n_1059_5575" x="719" y="0" width="304.84" height="246.576" filterUnits="userSpaceOnUse" color-interpolation-filters="sRGB">
<feFlood flood-opacity="0" result="BackgroundImageFix"/>
<feBlend mode="normal" in="SourceGraphic" in2="BackgroundImageFix" result="shape"/>
<feTurbulence type="fractalNoise" baseFrequency="0.94039720296859741 0.94039720296859741" stitchTiles="stitch" numOctaves="3" result="noise" seed="2548" />
<feColorMatrix in="noise" type="luminanceToAlpha" result="alphaNoise" />
<feComponentTransfer in="alphaNoise" result="coloredNoise1">
<feFuncA type="discrete" tableValues="1 1 1 1 1 1 1 1 1 1 1 1 1 1 1 1 1 1 1 1 1 1 1 1 1 1 1 1 1 1 1 1 1 1 1 1 1 1 1 1 1 1 1 1 1 1 1 1 1 1 1 0 0 0 0 0 0 0 0 0 0 0 0 0 0 0 0 0 0 0 0 0 0 0 0 0 0 0 0 0 0 0 0 0 0 0 0 0 0 0 0 0 0 0 0 0 0 0 0 0 "/>
</feComponentTransfer>
<feComposite operator="in" in2="shape" in="coloredNoise1" result="noise1Clipped" />
<feFlood flood-color="#4A6FFE" result="color1Flood" />
<feComposite operator="in" in2="noise1Clipped" in="color1Flood" result="color1" />
<feMerge result="effect1_noise_1059_5575">
<feMergeNode in="shape" />
<feMergeNode in="color1" />
</feMerge>
</filter>
<filter id="filter1_n_1059_5575" x="907" y="238" width="77.8867" height="63" filterUnits="userSpaceOnUse" color-interpolation-filters="sRGB">
<feFlood flood-opacity="0" result="BackgroundImageFix"/>
<feBlend mode="normal" in="SourceGraphic" in2="BackgroundImageFix" result="shape"/>
<feTurbulence type="fractalNoise" baseFrequency="3.6806280612945557 3.6806280612945557" stitchTiles="stitch" numOctaves="3" result="noise" seed="2548" />
<feColorMatrix in="noise" type="luminanceToAlpha" result="alphaNoise" />
<feComponentTransfer in="alphaNoise" result="coloredNoise1">
<feFuncA type="discrete" tableValues="1 1 1 1 1 1 1 1 1 1 1 1 1 1 1 1 1 1 1 1 1 1 1 1 1 1 1 1 1 1 1 1 1 1 1 1 1 1 1 1 1 1 1 1 1 1 1 1 1 1 1 0 0 0 0 0 0 0 0 0 0 0 0 0 0 0 0 0 0 0 0 0 0 0 0 0 0 0 0 0 0 0 0 0 0 0 0 0 0 0 0 0 0 0 0 0 0 0 0 0 "/>
</feComponentTransfer>
<feComposite operator="in" in2="shape" in="coloredNoise1" result="noise1Clipped" />
<feFlood flood-color="#4A6FFE" result="color1Flood" />
<feComposite operator="in" in2="noise1Clipped" in="color1Flood" result="color1" />
<feMerge result="effect1_noise_1059_5575">
<feMergeNode in="shape" />
<feMergeNode in="color1" />
</feMerge>
</filter>
<filter id="filter2_n_1059_5575" x="886" y="318" width="35.8516" height="29" filterUnits="userSpaceOnUse" color-interpolation-filters="sRGB">
<feFlood flood-opacity="0" result="BackgroundImageFix"/>
<feBlend mode="normal" in="SourceGraphic" in2="BackgroundImageFix" result="shape"/>
<feTurbulence type="fractalNoise" baseFrequency="7.995847225189209 7.995847225189209" stitchTiles="stitch" numOctaves="3" result="noise" seed="2548" />
<feColorMatrix in="noise" type="luminanceToAlpha" result="alphaNoise" />
<feComponentTransfer in="alphaNoise" result="coloredNoise1">
<feFuncA type="discrete" tableValues="1 1 1 1 1 1 1 1 1 1 1 1 1 1 1 1 1 1 1 1 1 1 1 1 1 1 1 1 1 1 1 1 1 1 1 1 1 1 1 1 1 1 1 1 1 1 1 1 1 1 1 0 0 0 0 0 0 0 0 0 0 0 0 0 0 0 0 0 0 0 0 0 0 0 0 0 0 0 0 0 0 0 0 0 0 0 0 0 0 0 0 0 0 0 0 0 0 0 0 0 "/>
</feComponentTransfer>
<feComposite operator="in" in2="shape" in="coloredNoise1" result="noise1Clipped" />
<feFlood flood-color="#4A6FFE" result="color1Flood" />
<feComposite operator="in" in2="noise1Clipped" in="color1Flood" result="color1" />
<feMerge result="effect1_noise_1059_5575">
<feMergeNode in="shape" />
<feMergeNode in="color1" />
</feMerge>
</filter>
<filter id="filter3_n_1059_5575" x="947.047" y="1006.69" width="90.5781" height="152.47" filterUnits="userSpaceOnUse" color-interpolation-filters="sRGB">
<feFlood flood-opacity="0" result="BackgroundImageFix"/>
<feBlend mode="normal" in="SourceGraphic" in2="BackgroundImageFix" result="shape"/>
<feTurbulence type="fractalNoise" baseFrequency="1.0559861660003662 1.0559861660003662" stitchTiles="stitch" numOctaves="3" result="noise" seed="2548" />
<feColorMatrix in="noise" type="luminanceToAlpha" result="alphaNoise" />
<feComponentTransfer in="alphaNoise" result="coloredNoise1">
<feFuncA type="discrete" tableValues="1 1 1 1 1 1 1 1 1 1 1 1 1 1 1 1 1 1 1 1 1 1 1 1 1 1 1 1 1 1 1 1 1 1 1 1 1 1 1 1 1 1 1 1 1 1 1 1 1 1 1 0 0 0 0 0 0 0 0 0 0 0 0 0 0 0 0 0 0 0 0 0 0 0 0 0 0 0 0 0 0 0 0 0 0 0 0 0 0 0 0 0 0 0 0 0 0 0 0 0 "/>
</feComponentTransfer>
<feComposite operator="in" in2="shape" in="coloredNoise1" result="noise1Clipped" />
<feFlood flood-color="#4A6FFE" result="color1Flood" />
<feComposite operator="in" in2="noise1Clipped" in="color1Flood" result="color1" />
<feMerge result="effect1_noise_1059_5575">
<feMergeNode in="shape" />
<feMergeNode in="color1" />
</feMerge>
</filter>
<filter id="filter4_n_1059_5575" x="620.988" y="872.725" width="406.766" height="263.424" filterUnits="userSpaceOnUse" color-interpolation-filters="sRGB">
<feFlood flood-opacity="0" result="BackgroundImageFix"/>
<feBlend mode="normal" in="SourceGraphic" in2="BackgroundImageFix" result="shape"/>
<feTurbulence type="fractalNoise" baseFrequency="1.0559861660003662 1.0559861660003662" stitchTiles="stitch" numOctaves="3" result="noise" seed="2548" />
<feColorMatrix in="noise" type="luminanceToAlpha" result="alphaNoise" />
<feComponentTransfer in="alphaNoise" result="coloredNoise1">
<feFuncA type="discrete" tableValues="1 1 1 1 1 1 1 1 1 1 1 1 1 1 1 1 1 1 1 1 1 1 1 1 1 1 1 1 1 1 1 1 1 1 1 1 1 1 1 1 1 1 1 1 1 1 1 1 1 1 1 0 0 0 0 0 0 0 0 0 0 0 0 0 0 0 0 0 0 0 0 0 0 0 0 0 0 0 0 0 0 0 0 0 0 0 0 0 0 0 0 0 0 0 0 0 0 0 0 0 "/>
</feComponentTransfer>
<feComposite operator="in" in2="shape" in="coloredNoise1" result="noise1Clipped" />
<feFlood flood-color="#4A6FFE" result="color1Flood" />
<feComposite operator="in" in2="noise1Clipped" in="color1Flood" result="color1" />
<feMerge result="effect1_noise_1059_5575">
<feMergeNode in="shape" />
<feMergeNode in="color1" />
</feMerge>
</filter>
<filter id="filter5_n_1059_5575" x="621.234" y="738.901" width="374.754" height="247.979" filterUnits="userSpaceOnUse" color-interpolation-filters="sRGB">
<feFlood flood-opacity="0" result="BackgroundImageFix"/>
<feBlend mode="normal" in="SourceGraphic" in2="BackgroundImageFix" result="shape"/>
<feTurbulence type="fractalNoise" baseFrequency="1.0559860467910767 1.0559860467910767" stitchTiles="stitch" numOctaves="3" result="noise" seed="2548" />
<feColorMatrix in="noise" type="luminanceToAlpha" result="alphaNoise" />
<feComponentTransfer in="alphaNoise" result="coloredNoise1">
<feFuncA type="discrete" tableValues="1 1 1 1 1 1 1 1 1 1 1 1 1 1 1 1 1 1 1 1 1 1 1 1 1 1 1 1 1 1 1 1 1 1 1 1 1 1 1 1 1 1 1 1 1 1 1 1 1 1 1 0 0 0 0 0 0 0 0 0 0 0 0 0 0 0 0 0 0 0 0 0 0 0 0 0 0 0 0 0 0 0 0 0 0 0 0 0 0 0 0 0 0 0 0 0 0 0 0 0 "/>
</feComponentTransfer>
<feComposite operator="in" in2="shape" in="coloredNoise1" result="noise1Clipped" />
<feFlood flood-color="#4A6FFE" result="color1Flood" />
<feComposite operator="in" in2="noise1Clipped" in="color1Flood" result="color1" />
<feMerge result="effect1_noise_1059_5575">
<feMergeNode in="shape" />
<feMergeNode in="color1" />
</feMerge>
</filter>
<filter id="filter6_n_1059_5575" x="866.094" y="859.936" width="90.9023" height="173.137" filterUnits="userSpaceOnUse" color-interpolation-filters="sRGB">
<feFlood flood-opacity="0" result="BackgroundImageFix"/>
<feBlend mode="normal" in="SourceGraphic" in2="BackgroundImageFix" result="shape"/>
<feTurbulence type="fractalNoise" baseFrequency="1.0559861660003662 1.0559861660003662" stitchTiles="stitch" numOctaves="3" result="noise" seed="2548" />
<feColorMatrix in="noise" type="luminanceToAlpha" result="alphaNoise" />
<feComponentTransfer in="alphaNoise" result="coloredNoise1">
<feFuncA type="discrete" tableValues="1 1 1 1 1 1 1 1 1 1 1 1 1 1 1 1 1 1 1 1 1 1 1 1 1 1 1 1 1 1 1 1 1 1 1 1 1 1 1 1 1 1 1 1 1 1 1 1 1 1 1 0 0 0 0 0 0 0 0 0 0 0 0 0 0 0 0 0 0 0 0 0 0 0 0 0 0 0 0 0 0 0 0 0 0 0 0 0 0 0 0 0 0 0 0 0 0 0 0 0 "/>
</feComponentTransfer>
<feComposite operator="in" in2="shape" in="coloredNoise1" result="noise1Clipped" />
<feFlood flood-color="#4A6FFE" result="color1Flood" />
<feComposite operator="in" in2="noise1Clipped" in="color1Flood" result="color1" />
<feMerge result="effect1_noise_1059_5575">
<feMergeNode in="shape" />
<feMergeNode in="color1" />
</feMerge>
</filter>
<filter id="filter7_n_1059_5575" x="923.031" y="816.153" width="419.938" height="259.167" filterUnits="userSpaceOnUse" color-interpolation-filters="sRGB">
<feFlood flood-opacity="0" result="BackgroundImageFix"/>
<feBlend mode="normal" in="SourceGraphic" in2="BackgroundImageFix" result="shape"/>
<feTurbulence type="fractalNoise" baseFrequency="1.0559861660003662 1.0559861660003662" stitchTiles="stitch" numOctaves="3" result="noise" seed="2548" />
<feColorMatrix in="noise" type="luminanceToAlpha" result="alphaNoise" />
<feComponentTransfer in="alphaNoise" result="coloredNoise1">
<feFuncA type="discrete" tableValues="1 1 1 1 1 1 1 1 1 1 1 1 1 1 1 1 1 1 1 1 1 1 1 1 1 1 1 1 1 1 1 1 1 1 1 1 1 1 1 1 1 1 1 1 1 1 1 1 1 1 1 0 0 0 0 0 0 0 0 0 0 0 0 0 0 0 0 0 0 0 0 0 0 0 0 0 0 0 0 0 0 0 0 0 0 0 0 0 0 0 0 0 0 0 0 0 0 0 0 0 "/>
</feComponentTransfer>
<feComposite operator="in" in2="shape" in="coloredNoise1" result="noise1Clipped" />
<feFlood flood-color="#4A6FFE" result="color1Flood" />
<feComposite operator="in" in2="noise1Clipped" in="color1Flood" result="color1" />
<feMerge result="effect1_noise_1059_5575">
<feMergeNode in="shape" />
<feMergeNode in="color1" />
</feMerge>
</filter>
<filter id="filter8_n_1059_5575" x="969.395" y="760.028" width="374.754" height="247.979" filterUnits="userSpaceOnUse" color-interpolation-filters="sRGB">
<feFlood flood-opacity="0" result="BackgroundImageFix"/>
<feBlend mode="normal" in="SourceGraphic" in2="BackgroundImageFix" result="shape"/>
<feTurbulence type="fractalNoise" baseFrequency="1.0559860467910767 1.0559860467910767" stitchTiles="stitch" numOctaves="3" result="noise" seed="2548" />
<feColorMatrix in="noise" type="luminanceToAlpha" result="alphaNoise" />
<feComponentTransfer in="alphaNoise" result="coloredNoise1">
<feFuncA type="discrete" tableValues="1 1 1 1 1 1 1 1 1 1 1 1 1 1 1 1 1 1 1 1 1 1 1 1 1 1 1 1 1 1 1 1 1 1 1 1 1 1 1 1 1 1 1 1 1 1 1 1 1 1 1 0 0 0 0 0 0 0 0 0 0 0 0 0 0 0 0 0 0 0 0 0 0 0 0 0 0 0 0 0 0 0 0 0 0 0 0 0 0 0 0 0 0 0 0 0 0 0 0 0 "/>
</feComponentTransfer>
<feComposite operator="in" in2="shape" in="coloredNoise1" result="noise1Clipped" />
<feFlood flood-color="#4A6FFE" result="color1Flood" />
<feComposite operator="in" in2="noise1Clipped" in="color1Flood" result="color1" />
<feMerge result="effect1_noise_1059_5575">
<feMergeNode in="shape" />
<feMergeNode in="color1" />
</feMerge>
</filter>
<filter id="filter9_n_1059_5575" x="719.723" y="345.395" width="349.547" height="338.122" filterUnits="userSpaceOnUse" color-interpolation-filters="sRGB">
<feFlood flood-opacity="0" result="BackgroundImageFix"/>
<feBlend mode="normal" in="SourceGraphic" in2="BackgroundImageFix" result="shape"/>
<feTurbulence type="fractalNoise" baseFrequency="1.057819128036499 1.057819128036499" stitchTiles="stitch" numOctaves="3" result="noise" seed="2548" />
<feColorMatrix in="noise" type="luminanceToAlpha" result="alphaNoise" />
<feComponentTransfer in="alphaNoise" result="coloredNoise1">
<feFuncA type="discrete" tableValues="1 1 1 1 1 1 1 1 1 1 1 1 1 1 1 1 1 1 1 1 1 1 1 1 1 1 1 1 1 1 1 1 1 1 1 1 1 1 1 1 1 1 1 1 1 1 1 1 1 1 1 0 0 0 0 0 0 0 0 0 0 0 0 0 0 0 0 0 0 0 0 0 0 0 0 0 0 0 0 0 0 0 0 0 0 0 0 0 0 0 0 0 0 0 0 0 0 0 0 0 "/>
</feComponentTransfer>
<feComposite operator="in" in2="shape" in="coloredNoise1" result="noise1Clipped" />
<feFlood flood-color="#4A6FFE" result="color1Flood" />
<feComposite operator="in" in2="noise1Clipped" in="color1Flood" result="color1" />
<feMerge result="effect1_noise_1059_5575">
<feMergeNode in="shape" />
<feMergeNode in="color1" />
</feMerge>
</filter>
<linearGradient id="paint0_linear_1059_5575" x1="937.053" y1="1118.29" x2="1004.18" y2="1099.07" gradientUnits="userSpaceOnUse">
<stop stop-color="#E2FF3C"/>
<stop offset="1" stop-color="#A4B7FF"/>
</linearGradient>
<linearGradient id="paint1_linear_1059_5575" x1="971.963" y1="973.249" x2="902.4" y2="958.318" gradientUnits="userSpaceOnUse">
<stop stop-color="#E2FF3C"/>
<stop offset="1" stop-color="#A4B7FF"/>
</linearGradient>
</defs>
</svg>
