<svg width="53" height="53" viewBox="0 0 53 53" fill="none" xmlns="http://www.w3.org/2000/svg">
<g clip-path="url(#clip0_792_2946)">
<path d="M52.8368 26.4184C52.8368 11.828 41.0088 0 26.4184 0C11.828 0 0 11.828 0 26.4184C0 38.8076 8.52997 49.2038 20.0368 52.0591V34.4919H14.5893V26.4184H20.0368V22.9396C20.0368 13.9479 24.1063 9.78009 32.9342 9.78009C34.6081 9.78009 37.4962 10.1087 38.6776 10.4363V17.7542C38.0541 17.6887 36.971 17.656 35.6258 17.656C31.2942 17.656 29.6203 19.2971 29.6203 23.5631V26.4184H38.2496L36.767 34.4919H29.6203V52.6434C42.7017 51.0636 52.8379 39.9256 52.8379 26.4184H52.8368Z" fill="#0866FF"/>
<path d="M36.7656 34.4921L38.2482 26.4186H29.6189V23.5633C29.6189 19.2972 31.2928 17.6561 35.6243 17.6561C36.9696 17.6561 38.0527 17.6889 38.6762 17.7544V10.4365C37.4948 10.1079 34.6067 9.78027 32.9328 9.78027C24.1049 9.78027 20.0354 13.948 20.0354 22.9398V26.4186H14.5879V34.4921H20.0354V52.0592C22.0791 52.5665 24.2169 52.837 26.417 52.837C27.5002 52.837 28.5685 52.7704 29.6179 52.6436V34.4921H36.7646H36.7656Z" fill="white"/>
</g>
<defs>
<clipPath id="clip0_792_2946">
<rect width="52.8368" height="52.8368" fill="white"/>
</clipPath>
</defs>
</svg>
