<svg width="69" height="69" viewBox="0 0 69 69" fill="none" xmlns="http://www.w3.org/2000/svg">
<path fill-rule="evenodd" clip-rule="evenodd" d="M34.5 60.375C37.898 60.375 41.2626 59.7057 44.4019 58.4054C47.5412 57.105 50.3937 55.1991 52.7964 52.7964C55.1991 50.3937 57.105 47.5412 58.4054 44.4019C59.7057 41.2626 60.375 37.898 60.375 34.5C60.375 31.102 59.7057 27.7374 58.4054 24.5981C57.105 21.4588 55.1991 18.6063 52.7964 16.2036C50.3937 13.8009 47.5412 11.895 44.4019 10.5946C41.2626 9.29428 37.898 8.625 34.5 8.625C27.6375 8.625 21.0561 11.3511 16.2036 16.2036C11.3511 21.0561 8.625 27.6375 8.625 34.5C8.625 41.3625 11.3511 47.9439 16.2036 52.7964C21.0561 57.6489 27.6375 60.375 34.5 60.375ZM33.833 44.965L48.208 27.715L43.792 24.035L31.4295 38.8671L25.0326 32.4674L20.9674 36.5326L29.5924 45.1576L31.8176 47.3829L33.833 44.965Z" fill="#CCCCCC"/>
</svg>
