<svg width="69" height="69" viewBox="0 0 69 69" fill="none" xmlns="http://www.w3.org/2000/svg">
<path fill-rule="evenodd" clip-rule="evenodd" d="M34.875 60.75C38.273 60.75 41.6376 60.0807 44.7769 58.7804C47.9162 57.48 50.7687 55.5741 53.1714 53.1714C55.5741 50.7687 57.48 47.9162 58.7804 44.7769C60.0807 41.6376 60.75 38.273 60.75 34.875C60.75 31.477 60.0807 28.1124 58.7804 24.9731C57.48 21.8338 55.5741 18.9813 53.1714 16.5786C50.7687 14.1759 47.9162 12.27 44.7769 10.9696C41.6376 9.66928 38.273 9 34.875 9C28.0125 9 21.4311 11.7261 16.5786 16.5786C11.7261 21.4311 9 28.0125 9 34.875C9 41.7375 11.7261 48.3189 16.5786 53.1714C21.4311 58.0239 28.0125 60.75 34.875 60.75ZM34.208 45.34L48.583 28.09L44.167 24.41L31.8045 39.2421L25.4076 32.8424L21.3424 36.9076L29.9674 45.5326L32.1926 47.7579L34.208 45.34Z" fill="#FED94A"/>
<path d="M48.5824 28.0902L34.2074 45.3402L32.192 47.758L29.9668 45.5328L21.3418 36.9078L25.407 32.8425L31.8039 39.2423L44.1664 24.4102L48.5824 28.0902Z" fill="#333333"/>
</svg>
