<svg width="53" height="53" viewBox="0 0 53 53" fill="none" xmlns="http://www.w3.org/2000/svg">
<g clip-path="url(#clip0_792_2949)">
<path d="M48.9364 0H3.90038C2.86594 0 1.87386 0.410933 1.1424 1.1424C0.410933 1.87386 0 2.86594 0 3.90038V48.9364C0 49.9709 0.410933 50.963 1.1424 51.6944C1.87386 52.4259 2.86594 52.8368 3.90038 52.8368H48.9364C49.9709 52.8368 50.963 52.4259 51.6944 51.6944C52.4259 50.963 52.8368 49.9709 52.8368 48.9364V3.90038C52.8368 2.86594 52.4259 1.87386 51.6944 1.1424C50.963 0.410933 49.9709 0 48.9364 0ZM15.7483 45.0104H7.80444V19.7771H15.7483V45.0104ZM11.7709 16.2803C10.8698 16.2753 9.99038 16.0034 9.24366 15.499C8.49694 14.9946 7.91636 14.2803 7.57521 13.4463C7.23405 12.6123 7.1476 11.6959 7.32677 10.8127C7.50594 9.92962 7.9427 9.11936 8.58192 8.48423C9.22114 7.8491 10.0342 7.41756 10.9184 7.24406C11.8027 7.07057 12.7185 7.1629 13.5503 7.5094C14.3822 7.8559 15.0927 8.44105 15.5923 9.19099C16.0919 9.94093 16.3581 10.8221 16.3574 11.7232C16.3659 12.3265 16.2529 12.9253 16.025 13.484C15.7971 14.0426 15.4591 14.5497 15.0311 14.975C14.6031 15.4002 14.0939 15.735 13.5338 15.9593C12.9736 16.1835 12.3741 16.2927 11.7709 16.2803ZM45.0287 45.0324H37.0885V31.2471C37.0885 27.1816 35.3603 25.9267 33.1294 25.9267C30.7738 25.9267 28.4622 27.7026 28.4622 31.3498V45.0324H20.5183V19.7955H28.1576V23.2922H28.2604C29.0272 21.7402 31.7131 19.0873 35.8116 19.0873C40.244 19.0873 45.0324 21.7181 45.0324 29.4235L45.0287 45.0324Z" fill="#0A66C2"/>
</g>
<defs>
<clipPath id="clip0_792_2949">
<rect width="52.8368" height="52.8368" fill="white"/>
</clipPath>
</defs>
</svg>
