<svg width="4121" height="3064" viewBox="0 0 4121 3064" fill="none" xmlns="http://www.w3.org/2000/svg">
<g opacity="0.2">
<path fill-rule="evenodd" clip-rule="evenodd" d="M3647.63 610.504C3757.91 610.504 3768.85 659.734 3676.94 722.542C3676.63 722.756 3676.31 722.971 3676 723.185C3670.47 727.186 3664.52 731.249 3658.13 735.364C3573.24 793.13 3495.33 844.551 3495.18 844.65C3495.18 844.65 3470.54 844.65 3436.79 844.65L2956.87 1039.03L2917.79 1057.09L2617.38 1340.19H2437.84C2437.84 1340.19 2485.86 1304.12 2535.51 1293.5C2587.47 1282.39 2593.43 1293.5 2593.43 1293.5L2803.29 1063.51L2859.62 1031.45L2933.61 1001.64L2802.39 993.565L2948.59 958.595L2966.5 958.791L2986.29 944.528C2980.47 946.621 2974.7 948.614 2969.06 950.447C2856.38 987.095 2778.18 957.702 2813.02 911.025C2859.84 848.307 2998.87 825.412 3122.36 805.531C3122.3 805.456 3122.22 805.383 3122.16 805.308C3122.21 805.256 3144.92 785.269 3255.99 722.542C3367.21 659.734 3537.36 610.504 3647.63 610.504ZM2976.72 871.793L3053.55 896.031L3070.82 883.584L3112.12 880.719L3080.09 903.815L3082.1 904.4C3082.1 904.4 3079.2 905.776 3074.14 908.099L3003.27 959.194L3037.99 959.574L3317.65 846.883C3298.35 848.718 3279.73 849.662 3262.14 849.662C3225.1 849.662 3197.06 845.482 3179.53 837.603L2976.72 871.793Z" fill="#616161" style="mix-blend-mode:multiply"/>
<path d="M3512.52 591.416C3542.94 581.405 3562.43 579.152 3561.29 591.131C3560.21 602.445 3537.45 612.772 3528.64 615.672C3507.31 622.69 3433.79 643.72 3404.77 646.406C3387.08 647.527 3410.51 637.276 3436.18 631.135C3470.45 622.937 3500.93 619.8 3509.57 618.52C3503.19 617.975 3487.68 617.911 3476.77 614.431C3468.19 608.247 3476.17 605.128 3503.54 594.607C3503.52 594.601 3503.51 594.594 3503.51 594.584C3503.41 594.403 3505.35 593.559 3507.84 592.698C3510.11 591.916 3512.05 591.389 3512.46 591.435L3512.52 591.416Z" fill="#616161" style="mix-blend-mode:multiply"/>
</g>
<g filter="url(#filter0_n_836_4748)">
<path d="M2513.4 1229.62C2547.4 1210.55 2571.32 1229.62 2571.32 1229.62L2409.26 835L2413.76 780L2591.4 427.5H2704.76L2523.26 793L2513.4 824L2670.76 1309.71H2491.22C2491.22 1309.71 2480.92 1247.83 2513.4 1229.62Z" fill="url(#paint0_linear_836_4748)"/>
</g>
<path d="M2295.27 715L2503.61 735L2547.27 658L2384.92 655L2295.27 715Z" fill="white"/>
<path d="M2385.85 526.302L2422.52 521.386L2442.5 670.423L2429.43 712.159L2405.83 675.339L2385.85 526.302Z" fill="#FED94A"/>
<g filter="url(#filter1_n_836_4748)">
<path d="M2392.22 641.02C2338.8 703.899 2213.07 653.467 2172.43 573.382C2103.83 438.172 2282.48 410.835 2376.55 366.086L2472.37 426.672L2272.69 506.07L2393.74 549.456L2430.8 562.016C2430.8 562.016 2416.33 612.639 2392.22 641.02Z" fill="url(#paint1_linear_836_4748)"/>
</g>
<g filter="url(#filter2_n_836_4748)">
<path d="M2733.65 280.185C2733.65 396.897 2639.04 468.1 2522.32 468.1C2405.61 468.1 2311 396.897 2311 280.185C2311 163.472 2405.61 68.8574 2522.32 68.8574C2639.04 68.8574 2733.65 163.472 2733.65 280.185Z" fill="#B1F645"/>
</g>
<path d="M2521.09 57.7676C2631.37 57.7676 2721.91 142.232 2731.57 249.995C2741.22 357.758 2747.26 459.5 2747.26 459.5C2747.26 459.5 2622.26 459.5 2549.76 459.5C2415.27 459.5 2366.1 429.399 2310.62 392C2310.62 392 2300.96 357.758 2310.62 249.995C2320.27 142.232 2410.82 57.7676 2521.09 57.7676Z" fill="white"/>
<ellipse cx="2399.7" cy="275.63" rx="43.128" ry="54.2181" transform="rotate(-13.1862 2399.7 275.63)" fill="#4A6FFE"/>
<ellipse cx="2516.76" cy="275.781" rx="43.128" ry="54.2181" transform="rotate(-8.04205 2516.76 275.781)" fill="#4A6FFE"/>
<rect x="2424.34" y="250.577" width="67.7726" height="18.4834" fill="#4A6FFE"/>
<g filter="url(#filter3_n_836_4748)">
<path d="M2355.09 25.0485C2354.6 24.97 2353.51 25.8739 2352.51 27.2166C2351.4 28.6939 2350.83 30.1425 2351.22 30.4519C2351.24 30.4689 2351.27 30.4816 2351.29 30.4912C2340.94 48.5439 2338 53.8954 2356.58 64.5049C2373.11 70.476 2388.73 70.5843 2395.99 71.5199C2389.42 73.7153 2364.02 79.0982 2343 93.1636C2327.26 103.701 2320.41 121.289 2336.28 119.366C2360.96 114.757 2400.48 78.6742 2410.45 66.6342C2414.58 61.6582 2420.64 43.9389 2403.42 24.5281C2385.19 3.97545 2369.35 7.83943 2355.11 25.0159L2355.09 25.0485Z" fill="url(#paint2_linear_836_4748)"/>
</g>
<path d="M2485.06 715.26C2485.89 714.219 2486.72 713.178 2487.55 712.137C2486.62 711.418 2485.69 710.699 2484.76 709.98C2483.16 708.743 2481.55 707.506 2479.95 706.27L2479.13 705.59L2478.08 706.016C2474.61 707.578 2471.14 709.14 2467.66 710.701L2469.37 710.967C2466.83 708.845 2464.29 706.723 2461.76 704.601L2460.33 703.32L2459.48 705.097C2458.68 706.946 2457.88 708.794 2457.08 710.642L2459.44 710.476C2458.24 708.664 2457.04 706.851 2455.84 705.038L2455 703.668L2453.89 704.881C2452.58 706.405 2451.27 707.928 2449.97 709.451L2450.8 709.074C2444.96 709.178 2439.11 709.281 2433.27 709.385C2432.09 709.406 2430.92 709.426 2429.74 709.447C2429.74 709.947 2429.74 710.447 2429.74 710.947C2430.92 710.968 2432.09 710.989 2433.27 711.01C2439.11 711.113 2444.96 711.217 2450.8 711.32L2451.33 711.311L2451.64 710.943C2453 709.467 2454.36 707.991 2455.72 706.515L2453.77 706.358C2454.9 708.212 2456.04 710.066 2457.17 711.92L2458.54 714.01L2459.53 711.755C2460.4 709.936 2461.26 708.118 2462.13 706.299L2459.85 706.796C2462.32 709.006 2464.78 711.217 2467.24 713.427L2468.04 714.099L2468.95 713.693C2472.47 712.256 2476 710.818 2479.53 709.381L2477.66 709.127C2479.22 710.42 2480.78 711.713 2482.34 713.006C2483.24 713.757 2484.15 714.509 2485.06 715.26Z" fill="#4A6FFE"/>
<g opacity="0.2">
<path d="M902.643 840.757L908.461 838.42L1030.73 851.238L1006.05 860.404C1007.8 861.458 1008.5 862.643 1007.85 863.836C1010.7 863.635 1013.81 863.62 1016.95 863.83C1026.73 864.482 1033.06 867.061 1031.09 869.591C1030.43 870.442 1028.91 871.18 1026.82 871.759C1038.01 872.758 1044.98 875.915 1042.55 879.037C1040.18 882.088 1029.68 884.032 1018.41 883.637C1013.41 885.568 1004.34 886.556 995.136 885.943C992.735 885.783 990.504 885.525 988.488 885.191C983.347 886.898 974.814 887.737 966.16 887.16C959.639 886.725 954.37 885.574 951.265 884.096C949.413 884.079 947.532 884.009 945.646 883.884C935.044 883.177 927.202 880.891 924.855 878.189C917.296 877.525 912.036 875.679 911.356 873.622C903.862 872.205 899.751 869.675 901.702 867.167C903.55 864.791 910.329 863.087 918.56 862.636L861.313 857.363L890.862 845.491L870.542 816.492L885.226 815.902L902.643 840.757Z" fill="#616161" style="mix-blend-mode:multiply"/>
</g>
<g opacity="0.8" filter="url(#filter4_n_836_4748)">
<path d="M872.083 540.5H757.824L605.677 1283.5H913.5L872.083 540.5Z" fill="url(#paint3_linear_836_4748)"/>
<path d="M872.083 540.5H757.824L605.677 1283.5H913.5L872.083 540.5Z" fill="white" fill-opacity="0.2"/>
</g>
<path d="M817.483 657.206L789.24 684.975L937.756 764.016L858.306 683.206L886.549 655.438L738.033 576.397L817.483 657.206Z" fill="white"/>
<g filter="url(#filter5_n_836_4748)">
<path d="M821.5 305C791.127 305 765.584 325.674 758.172 353.717C748.555 348.172 737.398 345 725.5 345C689.492 345 660.271 374.057 660.003 410.002C624.057 410.269 595 439.491 595 475.5C595 503.149 612.132 526.797 636.359 536.407C642.786 557.498 661.656 573.162 684.417 574.848C696.955 601.527 724.07 620 755.5 620C761.09 620 766.543 619.414 771.803 618.303C783.792 631.623 801.167 640 820.5 640C846.156 640 868.367 625.249 879.114 603.765C885.53 605.864 892.382 607 899.5 607C926.793 607 950.187 590.306 960.029 566.572C992.658 562.838 1018 535.128 1018 501.5C1018 467.075 991.443 438.854 957.699 436.204C962.337 428.674 965 419.886 965 410.5C965 382.61 941.495 360 912.5 360C903.194 360 894.455 362.333 886.875 366.418C884.768 332.145 856.304 305 821.5 305Z" fill="#4A6FFE"/>
</g>
<path d="M799.396 517.706C816.476 526.659 824.348 540.678 820.065 552.038C806.273 558.414 785.257 557.293 768.177 548.341C751.096 539.388 743.225 525.369 747.507 514.009C761.299 507.632 782.315 508.754 799.396 517.706Z" fill="#C8F55A"/>
<path d="M875.784 517.851C858.704 526.803 850.832 540.822 855.115 552.182C868.907 558.559 889.922 557.437 907.003 548.485C924.083 539.533 931.955 525.513 927.672 514.153C913.88 507.777 892.865 508.898 875.784 517.851Z" fill="#C8F55A"/>
<g opacity="0.2">
<path d="M196.504 795C226.877 795 268.959 807.404 298.805 824.23C303.986 820.903 312.606 819 324.504 819C360.512 819 412.979 836.434 442.003 858.001C478.162 858.161 530.597 875.695 559.404 897.3C581.523 913.89 583.309 928.078 566.77 933.844C577.216 946.499 570.878 955.897 549.465 956.909C558.271 972.916 545.934 984 514.504 984C508.914 984 502.991 983.648 496.843 982.982C495.51 990.974 484.837 996 465.504 996C439.847 996 405.836 987.149 377.901 974.259C373.165 975.518 367.221 976.2 360.104 976.2C332.81 976.2 296.061 966.184 267.232 951.943C231.617 949.703 184.107 933.077 157.204 912.9C129.664 892.245 133.644 875.312 165.268 873.722C154.606 869.205 144.913 863.932 137.404 858.3C115.092 841.566 120.509 828 149.504 828C158.81 828 169.415 829.4 180.263 831.851C154.952 811.287 161.7 795 196.504 795Z" fill="#616161" style="mix-blend-mode:multiply"/>
</g>
<path d="M912.31 679.302L898.757 684.852L940.992 785.891L955.222 801.316L954.546 780.341L912.31 679.302Z" fill="#FED94A"/>
<path d="M1045.37 842.539L920.251 831.515L951.136 753.435L1077.13 769.935L1045.37 842.539Z" fill="white"/>
<g filter="url(#filter6_n_836_4748)">
<path d="M1042.57 799.144C1032.3 799.144 1023.67 806.118 1021.16 815.577C1017.91 813.706 1014.14 812.637 1010.12 812.637C997.944 812.637 988.065 822.438 987.975 834.563C975.823 834.653 966 844.51 966 856.656C966 865.982 971.792 873.959 979.982 877.201C982.154 884.315 988.534 889.599 996.228 890.167C1000.47 899.167 1009.63 905.398 1020.26 905.398C1022.15 905.398 1023.99 905.2 1025.77 904.825C1029.82 909.318 1035.7 912.144 1042.23 912.144C1050.91 912.144 1058.41 907.168 1062.05 899.921C1064.22 900.63 1066.53 901.013 1068.94 901.013C1078.17 901.013 1086.08 895.382 1089.4 887.376C1100.43 886.116 1109 876.769 1109 865.426C1109 853.814 1100.02 844.295 1088.61 843.401C1090.18 840.861 1091.08 837.897 1091.08 834.731C1091.08 825.323 1083.14 817.696 1073.33 817.696C1070.19 817.696 1067.23 818.483 1064.67 819.861C1063.96 808.3 1054.34 799.144 1042.57 799.144Z" fill="#4A6FFE"/>
</g>
<g opacity="0.2">
<path fill-rule="evenodd" clip-rule="evenodd" d="M636.809 1476.02C637.881 1475.87 638.958 1475.72 640.043 1475.57C639.818 1475.8 639.592 1476.03 639.37 1476.25L815.141 1491.92L813.541 1491.4L907.461 1488.88L995.014 1519.35L985.968 1526.93C1003.66 1528.14 1023.02 1531.31 1040.44 1536.02C1068.77 1543.67 1078.53 1550.83 1093.95 1560.21C1109.36 1569.59 1119.4 1584.05 1119.4 1584.05L988.165 1591.11L983.812 1588.5C989.899 1603.51 979.977 1618.62 951.217 1631.64C939.152 1637.09 926.172 1642 912.228 1646.22L1007.5 1688.86C1007.5 1688.86 984.223 1697.82 961.738 1700.95C939.253 1704.08 923.749 1707.07 892.339 1704.88C852.447 1702.1 812.545 1691.37 802.577 1679.21C789.904 1663.75 888.078 1674.67 888.078 1674.67L834.266 1660.9C776.882 1665.96 707.864 1660.86 625.184 1640.48C515.886 1614.95 393.103 1527.77 584.99 1485.25L515.407 1479.05L508.016 1464.54L636.809 1476.02ZM626.577 1488.96C584.147 1530.34 629.573 1483.34 856.7 1528.97C891.51 1535.96 920.127 1544.77 941.475 1554.55L1005.66 1559.8C1005.58 1559.78 921.797 1541.2 936.386 1531.64L855.873 1505.27L824.255 1506.59L626.577 1488.96Z" fill="#616161" style="mix-blend-mode:multiply"/>
</g>
<g filter="url(#filter7_n_836_4748)">
<path d="M1302.36 1583.96L1268.04 1537.25L1215.45 1612.73L1314.39 1667.51C1314.39 1667.51 1343.23 1645.51 1356.38 1626.95C1369.53 1608.39 1380.82 1595.18 1381.74 1572.45C1382.92 1543.59 1363 1518.58 1332.82 1516.96C1294.45 1514.9 1302.36 1583.96 1302.36 1583.96Z" fill="url(#paint4_linear_836_4748)"/>
</g>
<g filter="url(#filter8_n_836_4748)">
<path d="M950.293 1663.8L950.121 1605.84L1037.29 1635.27L990.288 1738.14C990.288 1738.14 954.025 1737.59 932.416 1730.48C910.807 1723.37 893.879 1719.46 879.622 1701.74C861.514 1679.23 862.67 1647.28 885.972 1628.03C915.599 1603.56 950.293 1663.8 950.293 1663.8Z" fill="url(#paint5_linear_836_4748)"/>
</g>
<path d="M1278.87 1307.89C1021.87 1223.2 862.708 1406.74 869.385 1496.63C873.142 1612.13 969.913 1647.12 1094.07 1643.08C1218.23 1639.04 1300.65 1562.23 1284.32 1475.62C1250.72 1297.42 1084.66 1353.73 1278.87 1307.89Z" fill="white"/>
<path d="M1223.34 1231.23L1192.74 1252.03L1318.41 1433.42L1355.99 1455.8L1349.02 1412.63L1223.34 1231.23Z" fill="#FED94A"/>
<path d="M1393.87 1530.78L1322.09 1544.68L1348.59 1410.22L1413.25 1452.44L1393.87 1530.78Z" fill="white"/>
<ellipse cx="14.7224" cy="29" rx="14.7224" ry="29" transform="matrix(-0.999471 0.032515 0.032515 0.999471 1240.55 1424.7)" fill="#333333"/>
<ellipse cx="14.7224" cy="29" rx="14.7224" ry="29" transform="matrix(-0.999471 0.032515 0.032515 0.999471 1240.55 1424.7)" fill="#4A6FFE"/>
<path d="M1135.54 1457.13C1136.07 1473.14 1143.08 1485.9 1151.2 1485.64C1159.33 1485.37 1165.49 1472.18 1164.97 1456.17C1164.45 1440.17 1157.44 1427.4 1149.32 1427.67C1141.19 1427.93 1135.02 1441.12 1135.54 1457.13Z" fill="#333333"/>
<path d="M1135.54 1457.13C1136.07 1473.14 1143.08 1485.9 1151.2 1485.64C1159.33 1485.37 1165.49 1472.18 1164.97 1456.17C1164.45 1440.17 1157.44 1427.4 1149.32 1427.67C1141.19 1427.93 1135.02 1441.12 1135.54 1457.13Z" fill="#4A6FFE"/>
<g filter="url(#filter9_n_836_4748)">
<g filter="url(#filter10_n_836_4748)">
<rect x="1627.05" y="1920.32" width="53.5354" height="533.18" transform="rotate(-78.8315 1627.05 1920.32)" fill="url(#paint6_linear_836_4748)"/>
</g>
<g filter="url(#filter11_n_836_4748)">
<rect width="53.5354" height="514.197" transform="matrix(-0.378908 -0.925435 -0.925435 0.378908 2133.06 1876.65)" fill="url(#paint7_linear_836_4748)"/>
</g>
<g filter="url(#filter12_n_836_4748)">
<rect width="53.5354" height="300.965" transform="matrix(-0.882207 -0.470862 -0.470862 0.882207 1979.47 1829.14)" fill="url(#paint8_linear_836_4748)"/>
</g>
<g filter="url(#filter13_n_836_4748)">
<rect x="1837.23" y="1804.11" width="53.5354" height="300.965" transform="rotate(-8.12642 1837.23 1804.11)" fill="url(#paint9_linear_836_4748)"/>
</g>
<path fill-rule="evenodd" clip-rule="evenodd" d="M1791.92 1442.28L1815.8 1457.8C1870.83 1493.54 1892.51 1535.69 1899.84 1569.95C1900.83 1574.55 1901.55 1578.95 1902 1583.15C1909.52 1570.38 1915.61 1553.56 1915.61 1532.6V1500.13L1940.81 1520.6C1993.84 1563.67 2022.63 1603.25 2037.96 1637.98C2053.39 1672.83 2054.75 1701.67 2054.75 1721.99C2054.75 1814.14 1978.26 1888.19 1884.69 1888.19C1791.12 1888.19 1714.62 1814.14 1714.62 1721.99C1714.62 1686.93 1719.69 1660.98 1727.67 1639.62C1735.55 1618.62 1746.01 1602.76 1755.56 1588.29L1755.84 1587.85C1765.55 1573.14 1774.27 1559.81 1780.82 1542.28C1787.32 1524.9 1791.92 1502.7 1791.92 1470.76V1442.28Z" fill="#FF6518"/>
<circle cx="1837" cy="1634" r="1430" fill="url(#paint10_radial_836_4748)" fill-opacity="0.5"/>
</g>
<g filter="url(#filter14_n_836_4748)">
<path d="M2473.21 1539.15C2503.92 1531.31 2517.6 1563.33 2517.6 1563.33L2574.2 1671.15L2543.61 1699.69C2543.61 1699.69 2514.62 1681.47 2499.26 1664.44C2483.9 1647.4 2471.39 1635.57 2464.94 1612.45C2456.73 1583.08 2449.05 1545.31 2473.21 1539.15Z" fill="url(#paint11_linear_836_4748)"/>
</g>
<g filter="url(#filter15_n_836_4748)">
<path d="M2507.9 1551.94L2589.91 1730.74C2589.91 1730.74 2612.66 1730.46 2617.96 1721.73C2634.57 1694.38 2609.3 1703.86 2630.03 1704.36C2651.18 1704.87 2650 1697.29 2791.27 1618.8C2820.43 1602.6 2861.83 1572.27 2861.83 1572.27C2919.5 1544.68 2967.69 1501.15 2881.1 1443.36C2822.97 1404.56 2739.18 1442.73 2634.84 1464.46C2530.49 1486.2 2531.92 1459.96 2517.29 1516.26C2513.89 1529.32 2507.9 1551.94 2507.9 1551.94Z" fill="#C8F55A"/>
</g>
<g filter="url(#filter16_n_836_4748)">
<path d="M2883.57 1585.87C2850.25 1584.33 2799.19 1580.95 2799.19 1580.95C2735.46 1585.97 2671.95 1572.44 2717.93 1479.04C2748.8 1416.34 2840.43 1407.39 2941.62 1373.93C3042.82 1340.46 3028.44 1318.47 3069.31 1359.86C3175.77 1467.68 2982.65 1590.47 2883.57 1585.87Z" fill="#C8F55A"/>
</g>
<g filter="url(#filter17_n_836_4748)">
<path d="M3068.19 1616.23C3045.58 1622.94 3010.7 1632.25 3010.7 1632.25C2969.45 1652.76 2923.73 1655.35 2931.15 1554.07C2936.12 1486.09 2995 1454.92 3054.14 1397.79C3113.29 1340.66 3098.23 1323.02 3135.78 1352.83C3233.6 1430.5 3135.4 1596.29 3068.19 1616.23Z" fill="#C8F55A"/>
</g>
<g filter="url(#filter18_n_836_4748)">
<path d="M2962.23 941.979C3045.81 928.877 3107.94 998.559 3117.16 1057.4C3134.88 1170.4 3150.26 1219.66 3150.26 1219.66C3057.06 1211.3 2838.76 1320.17 2800.71 1260.58C2800.71 1260.58 2845.03 1152.68 2840.83 1089.23C2836.63 1025.78 2878.65 955.081 2962.23 941.979Z" fill="#4A6FFE"/>
</g>
<path d="M2957.39 988.72C3033.88 1034.14 3019.12 990.474 3043.52 1030.19C3049.14 1005.86 3071.7 999.731 3081.74 1003.63C3094.36 1008.52 3098.64 1027.82 3091.3 1046.73C3083.96 1065.65 3075.65 1075.78 3063.03 1070.88C3061.68 1070.36 3060.34 1069.68 3059.02 1068.87C3055.62 1112.12 3026.42 1148.17 2985.98 1154.51C2937.76 1162.07 2891.81 1124.5 2883.36 1070.6C2878.8 1041.5 2909.16 996.28 2957.39 988.72Z" fill="white"/>
<path fill-rule="evenodd" clip-rule="evenodd" d="M2997.55 1039.78C3013.64 1037.26 3028.33 1045.76 3030.37 1058.76C3032.4 1071.77 3021.02 1084.35 3004.93 1086.87C2988.85 1089.39 2974.16 1080.9 2972.12 1067.89C2972.11 1067.82 2972.1 1067.74 2972.09 1067.67L2962.23 1069.21L2963.17 1085.72L2958.17 1085.45L2957.08 1070.02L2951.28 1070.93C2951.29 1071 2951.31 1071.08 2951.32 1071.15C2953.36 1084.16 2941.97 1096.74 2925.89 1099.26C2909.81 1101.78 2895.12 1093.29 2893.08 1080.28C2891.04 1067.28 2902.42 1054.7 2918.51 1052.18C2932.86 1049.93 2946.09 1056.45 2950.23 1067.11L2971.92 1063.71C2972.6 1052.29 2983.21 1042.03 2997.55 1039.78ZM2919.31 1058.42C2907.45 1060.28 2899.06 1069.62 2900.57 1079.28C2902.09 1088.93 2912.93 1095.26 2924.8 1093.4C2936.66 1091.54 2945.05 1082.2 2943.54 1072.54C2942.02 1062.88 2931.18 1056.56 2919.31 1058.42ZM2998.7 1045.98C2986.83 1047.84 2978.44 1057.17 2979.96 1066.83C2981.47 1076.49 2992.32 1082.81 3004.18 1080.95C3016.04 1079.09 3024.43 1069.75 3022.92 1060.1C3021.41 1050.44 3010.56 1044.12 2998.7 1045.98Z" fill="#4A6FFE"/>
<rect x="2996.64" y="1097.34" width="29.3056" height="122.894" transform="rotate(-8.90912 2996.64 1097.34)" fill="white"/>
<path d="M3162.54 1276.68C3162.54 1276.68 3195.49 1354.5 3193.14 1375.27C3189.3 1409.1 3189.91 1392.75 3189.91 1392.75C3189.91 1392.75 3192.71 1399.99 3196.07 1403.74C3201.81 1410.13 3207.3 1419.77 3199.45 1434.75C3190.62 1451.61 2916.52 1389.69 2910.87 1375.92C2905.21 1362.15 2911.16 1354.61 2924.03 1353.7C2930.17 1353.26 2938.07 1347.53 2938.07 1347.53L2913.67 1197.98C2913.67 1197.98 3037.15 1157.79 3118.41 1156.57C3129.76 1156.4 3143.14 1157.76 3143.14 1157.76L3162.54 1276.68Z" fill="#4A6FFE"/>
<g opacity="0.2">
<path fill-rule="evenodd" clip-rule="evenodd" d="M4017.91 1509.37C4118.37 1510.2 4089.96 1533.75 4022.8 1551.25C3975.25 1563.64 3938.63 1573.51 3911.34 1581.03C3915.63 1581.38 3918.48 1581.66 3918.48 1581.66L3918.17 1581.74C3926.95 1582.55 3933.21 1584.68 3935.4 1588.63C3936.84 1591.23 3927.19 1594.74 3895.17 1607.42C3847.8 1626.17 3811.79 1637.19 3732.97 1647.4C3720.3 1649.05 3700.01 1650.84 3699.93 1650.85L3699.98 1650.73C3685.4 1652.49 3669.08 1654.02 3651.55 1655.99C3648.58 1658.13 3640.85 1661.08 3615.18 1664.74C3610.28 1665.44 3601.26 1665.18 3589.59 1664.25C3589.39 1664.27 3589.19 1664.3 3589 1664.33C3543.72 1674.64 3482 1684.79 3422.14 1692.9C3411.99 1695.62 3402.03 1698.3 3392.45 1700.93C3278.12 1732.25 3316.79 1730.18 3224.6 1737.95C3203.22 1739.75 3166.09 1742.9 3166.09 1742.9L3163.76 1742.75L3142.66 1749.68C3142.66 1749.68 3089.29 1753.73 3058.03 1754.66C3026.76 1755.59 3002.14 1756.68 2982.54 1754.44C2957.65 1751.59 2930.2 1747.23 2966.04 1740.34C2988.44 1736.03 3008.21 1734.31 3022.51 1733.68L2975.81 1730.68C2975.81 1730.68 2994.36 1724.13 3011.06 1722.05C3063.42 1715.56 3029.71 1723.41 3045.54 1717.49C3055.74 1713.67 3063.45 1712.21 3124.57 1700.16C3132.75 1697.82 3143.56 1695.1 3157.39 1691.94C3135.34 1692.2 3116.87 1691.87 3103.64 1690.9C3092.86 1690.11 3080.26 1689.14 3068.37 1688.21C3040.31 1690.37 2998.97 1693.46 2968.73 1695.31C2725.81 1710.15 2717.15 1712.41 2696.7 1711.09C2676.65 1709.8 2714.18 1708.46 2662.1 1715.44C2645.51 1717.66 2622.48 1716.49 2622.4 1716.49L2666.08 1700.16L2616.47 1704.97C2616.47 1704.97 2611.17 1698.11 2617.94 1692.34C2624.71 1686.57 2627.58 1682.46 2651.15 1675.43C2681.08 1666.5 2722.43 1655.17 2754.55 1654.73C2776.47 1654.42 2778.59 1657.16 2775.84 1659.77C2785.05 1658.15 2811.66 1653.48 2828.26 1650.56C2915.95 1635.11 2880.46 1642.61 3012.86 1642.1C3052.28 1641.95 3091.76 1641.28 3127.99 1640.79C3140.01 1633.64 3171.89 1621.1 3218.71 1616.73C3252.57 1613.56 3271.99 1614.89 3299.51 1614.61C3335.54 1614.26 3377.73 1608.96 3421.4 1605.19C3434.59 1604.05 3451.68 1602.09 3467.1 1600.2C3444.86 1598.99 3434.54 1596.62 3443.11 1592.41C3443.11 1592.41 3627.41 1563.72 3705.57 1545.16C3783.73 1526.61 3917.46 1508.53 4017.91 1509.37ZM3523.74 1610.33C3484.51 1614.79 3439.37 1620.1 3393.83 1628.1C3380.38 1630.46 3367.98 1632.67 3356.4 1634.75C3372.16 1634.45 3388.37 1634.12 3405.14 1633.73C3402.93 1632.87 3402.24 1632.21 3403.4 1631.8C3415.62 1627.51 3431.34 1625.66 3445.38 1626.11C3452.05 1626.32 3467.29 1625.12 3467.4 1625.11L3523.74 1610.33Z" fill="#616161" style="mix-blend-mode:multiply"/>
</g>
<g filter="url(#filter19_n_836_4748)">
<path d="M2951.46 1744.12C2956.4 1712.81 2991.22 1712.9 2991.22 1712.9L3112.64 1703.51L3126.76 1742.89C3126.76 1742.89 3098.57 1762.32 3076.85 1769.7C3055.14 1777.08 3039.33 1783.89 3015.53 1780.68C2985.31 1776.61 2947.58 1768.74 2951.46 1744.12Z" fill="url(#paint12_linear_836_4748)"/>
</g>
<g filter="url(#filter20_n_836_4748)">
<path d="M3121.12 1720.49L2924.47 1715.82C2924.47 1715.82 2915.73 1694.81 2921.66 1686.49C2940.22 1660.43 2941.5 1687.39 2932.84 1668.54C2924.02 1649.32 2931.45 1647.41 2947.72 1486.62C2951.08 1453.43 2962.58 1403.41 2962.58 1403.41C2965.14 1339.53 2969.72 1328.17 3022.22 1328.17C3121.13 1328.17 3130.05 1464.88 3151.32 1569.32C3172.58 1673.77 3196.12 1662.09 3150.19 1697.77C3139.54 1706.05 3121.12 1720.49 3121.12 1720.49Z" fill="#C8F55A"/>
</g>
<path d="M2723.88 1445.07C2707.52 1423.89 2685.98 1382.37 2708.42 1362.47C2724.17 1348.5 2744.52 1349.2 2765.6 1344.21C2793.19 1337.68 2807.92 1316.5 2829.37 1299.35C2844.86 1286.97 2861.31 1258.11 2861.31 1258.11C2861.31 1258.11 2916.61 1135.65 2957.45 1234.23C2973.59 1273.21 2907.37 1300.63 2889.84 1367.12C2872.31 1433.6 2873.66 1466.6 2814.86 1483.87C2783.45 1493.1 2743.83 1470.89 2723.88 1445.07Z" fill="#4A6FFE"/>
<path d="M2788.45 1334.79L2802.05 1329.36L2841.96 1431.34L2842.46 1452.32L2828.36 1436.77L2788.45 1334.79Z" fill="#FED94A"/>
<path d="M2841.37 1404.49C2836.8 1393.95 2824.02 1388.16 2805.39 1393.21C2805.08 1387.19 2812.1 1385.67 2808.88 1384.21C2802.73 1381.42 2771.48 1389.74 2766.62 1404.14C2766.11 1405.64 2765.67 1407.13 2765.29 1408.6C2765.1 1409.34 2784.54 1439.29 2784.54 1439.29C2784.54 1439.29 2796.37 1444.48 2810.58 1438.69C2832.34 1429.83 2846.64 1416.65 2841.37 1404.49Z" fill="white"/>
<path d="M2941.52 1456.36C2938.16 1445.37 2950.46 1431.56 2969.95 1423.12C2966.06 1418.36 2964.5 1413.75 2966.26 1410.54C2969.61 1404.38 2983.79 1405.63 2997.94 1413.33C2999.41 1414.13 3000.82 1414.96 3002.16 1415.83C3017.14 1415.53 3028.75 1420.18 3031.4 1428.81C3035.28 1441.48 3018.31 1457.92 2993.49 1465.53C2968.68 1473.13 2945.41 1469.03 2941.52 1456.36Z" fill="white"/>
<path d="M3037.43 1516.16L2986.03 1403.45C2986.03 1403.45 2976.23 1379.21 2984.22 1373.35C3007.49 1356.31 3011.89 1379.47 3039.45 1371.37C3077.13 1360.3 3085.03 1348.36 3085.03 1348.36C3085.03 1348.36 3166.66 1255.91 3218.05 1344.45C3238.58 1379.81 3202.87 1389.33 3186.44 1420.18C3147.2 1493.84 3148.26 1482.84 3070.52 1509.03C3057.99 1513.25 3037.43 1516.16 3037.43 1516.16Z" fill="#4A6FFE"/>
<path d="M3217.34 1383.21L3148.47 1323.27C3148.47 1323.27 3125.58 1310.66 3126.05 1304.46C3127.41 1286.44 3149.69 1295.28 3159.89 1281.71C3162.9 1277.7 3145.5 1262.91 3126.59 1244.96C3104.54 1224.02 3095.91 1117.43 3181.84 1174.49C3192.39 1181.5 3197.31 1192.71 3217.34 1232.79C3246.97 1292.08 3257.82 1328.17 3231.43 1368.59C3227.18 1375.1 3217.34 1383.21 3217.34 1383.21Z" fill="#4A6FFE"/>
<path d="M2836.34 1477.75L2961.46 1466.73L2930.57 1388.65L2804.58 1405.15L2836.34 1477.75Z" fill="white"/>
<defs>
<filter id="filter0_n_836_4748" x="2409.26" y="427.5" width="295.5" height="882.212" filterUnits="userSpaceOnUse" color-interpolation-filters="sRGB">
<feFlood flood-opacity="0" result="BackgroundImageFix"/>
<feBlend mode="normal" in="SourceGraphic" in2="BackgroundImageFix" result="shape"/>
<feTurbulence type="fractalNoise" baseFrequency="1 1" stitchTiles="stitch" numOctaves="3" result="noise" seed="2548" />
<feColorMatrix in="noise" type="luminanceToAlpha" result="alphaNoise" />
<feComponentTransfer in="alphaNoise" result="coloredNoise1">
<feFuncA type="discrete" tableValues="1 1 1 1 1 1 1 1 1 1 1 1 1 1 1 1 1 1 1 1 1 1 1 1 1 1 1 1 1 1 1 1 1 1 1 1 1 1 1 1 1 1 1 1 1 1 1 1 1 1 1 0 0 0 0 0 0 0 0 0 0 0 0 0 0 0 0 0 0 0 0 0 0 0 0 0 0 0 0 0 0 0 0 0 0 0 0 0 0 0 0 0 0 0 0 0 0 0 0 0 "/>
</feComponentTransfer>
<feComposite operator="in" in2="shape" in="coloredNoise1" result="noise1Clipped" />
<feFlood flood-color="#4A6FFE" result="color1Flood" />
<feComposite operator="in" in2="noise1Clipped" in="color1Flood" result="color1" />
<feMerge result="effect1_noise_836_4748">
<feMergeNode in="shape" />
<feMergeNode in="color1" />
</feMerge>
</filter>
<filter id="filter1_n_836_4748" x="2157.12" y="366.086" width="315.254" height="303.24" filterUnits="userSpaceOnUse" color-interpolation-filters="sRGB">
<feFlood flood-opacity="0" result="BackgroundImageFix"/>
<feBlend mode="normal" in="SourceGraphic" in2="BackgroundImageFix" result="shape"/>
<feTurbulence type="fractalNoise" baseFrequency="1 1" stitchTiles="stitch" numOctaves="3" result="noise" seed="2548" />
<feColorMatrix in="noise" type="luminanceToAlpha" result="alphaNoise" />
<feComponentTransfer in="alphaNoise" result="coloredNoise1">
<feFuncA type="discrete" tableValues="1 1 1 1 1 1 1 1 1 1 1 1 1 1 1 1 1 1 1 1 1 1 1 1 1 1 1 1 1 1 1 1 1 1 1 1 1 1 1 1 1 1 1 1 1 1 1 1 1 1 1 0 0 0 0 0 0 0 0 0 0 0 0 0 0 0 0 0 0 0 0 0 0 0 0 0 0 0 0 0 0 0 0 0 0 0 0 0 0 0 0 0 0 0 0 0 0 0 0 0 "/>
</feComponentTransfer>
<feComposite operator="in" in2="shape" in="coloredNoise1" result="noise1Clipped" />
<feFlood flood-color="#4A6FFE" result="color1Flood" />
<feComposite operator="in" in2="noise1Clipped" in="color1Flood" result="color1" />
<feMerge result="effect1_noise_836_4748">
<feMergeNode in="shape" />
<feMergeNode in="color1" />
</feMerge>
</filter>
<filter id="filter2_n_836_4748" x="2311" y="68.8574" width="422.656" height="399.242" filterUnits="userSpaceOnUse" color-interpolation-filters="sRGB">
<feFlood flood-opacity="0" result="BackgroundImageFix"/>
<feBlend mode="normal" in="SourceGraphic" in2="BackgroundImageFix" result="shape"/>
<feTurbulence type="fractalNoise" baseFrequency="0.25 0.25" stitchTiles="stitch" numOctaves="3" result="noise" seed="6958" />
<feColorMatrix in="noise" type="luminanceToAlpha" result="alphaNoise" />
<feComponentTransfer in="alphaNoise" result="coloredNoise1">
<feFuncA type="discrete" tableValues="1 1 1 1 1 1 1 1 1 1 1 1 1 1 1 1 1 1 1 1 1 1 1 1 1 1 1 1 1 1 1 1 1 1 1 1 1 1 1 1 1 1 1 1 1 1 1 1 1 1 1 0 0 0 0 0 0 0 0 0 0 0 0 0 0 0 0 0 0 0 0 0 0 0 0 0 0 0 0 0 0 0 0 0 0 0 0 0 0 0 0 0 0 0 0 0 0 0 0 0 "/>
</feComponentTransfer>
<feComposite operator="in" in2="shape" in="coloredNoise1" result="noise1Clipped" />
<feFlood flood-color="#FFFFFF" result="color1Flood" />
<feComposite operator="in" in2="noise1Clipped" in="color1Flood" result="color1" />
<feMerge result="effect1_noise_836_4748">
<feMergeNode in="shape" />
<feMergeNode in="color1" />
</feMerge>
</filter>
<filter id="filter3_n_836_4748" x="2327.26" y="10.5767" width="87.6836" height="108.935" filterUnits="userSpaceOnUse" color-interpolation-filters="sRGB">
<feFlood flood-opacity="0" result="BackgroundImageFix"/>
<feBlend mode="normal" in="SourceGraphic" in2="BackgroundImageFix" result="shape"/>
<feTurbulence type="fractalNoise" baseFrequency="1 1" stitchTiles="stitch" numOctaves="3" result="noise" seed="2548" />
<feColorMatrix in="noise" type="luminanceToAlpha" result="alphaNoise" />
<feComponentTransfer in="alphaNoise" result="coloredNoise1">
<feFuncA type="discrete" tableValues="1 1 1 1 1 1 1 1 1 1 1 1 1 1 1 1 1 1 1 1 1 1 1 1 1 1 1 1 1 1 1 1 1 1 1 1 1 1 1 1 1 1 1 1 1 1 1 1 1 1 1 0 0 0 0 0 0 0 0 0 0 0 0 0 0 0 0 0 0 0 0 0 0 0 0 0 0 0 0 0 0 0 0 0 0 0 0 0 0 0 0 0 0 0 0 0 0 0 0 0 "/>
</feComponentTransfer>
<feComposite operator="in" in2="shape" in="coloredNoise1" result="noise1Clipped" />
<feFlood flood-color="#4A6FFE" result="color1Flood" />
<feComposite operator="in" in2="noise1Clipped" in="color1Flood" result="color1" />
<feMerge result="effect1_noise_836_4748">
<feMergeNode in="shape" />
<feMergeNode in="color1" />
</feMerge>
</filter>
<filter id="filter4_n_836_4748" x="605.676" y="540.5" width="307.824" height="743" filterUnits="userSpaceOnUse" color-interpolation-filters="sRGB">
<feFlood flood-opacity="0" result="BackgroundImageFix"/>
<feBlend mode="normal" in="SourceGraphic" in2="BackgroundImageFix" result="shape"/>
<feTurbulence type="fractalNoise" baseFrequency="1 1" stitchTiles="stitch" numOctaves="3" result="noise" seed="2548" />
<feColorMatrix in="noise" type="luminanceToAlpha" result="alphaNoise" />
<feComponentTransfer in="alphaNoise" result="coloredNoise1">
<feFuncA type="discrete" tableValues="1 1 1 1 1 1 1 1 1 1 1 1 1 1 1 1 1 1 1 1 1 1 1 1 1 1 1 1 1 1 1 1 1 1 1 1 1 1 1 1 1 1 1 1 1 1 1 1 1 1 1 0 0 0 0 0 0 0 0 0 0 0 0 0 0 0 0 0 0 0 0 0 0 0 0 0 0 0 0 0 0 0 0 0 0 0 0 0 0 0 0 0 0 0 0 0 0 0 0 0 "/>
</feComponentTransfer>
<feComposite operator="in" in2="shape" in="coloredNoise1" result="noise1Clipped" />
<feFlood flood-color="#4A6FFE" result="color1Flood" />
<feComposite operator="in" in2="noise1Clipped" in="color1Flood" result="color1" />
<feMerge result="effect1_noise_836_4748">
<feMergeNode in="shape" />
<feMergeNode in="color1" />
</feMerge>
</filter>
<filter id="filter5_n_836_4748" x="595" y="305" width="423" height="335" filterUnits="userSpaceOnUse" color-interpolation-filters="sRGB">
<feFlood flood-opacity="0" result="BackgroundImageFix"/>
<feBlend mode="normal" in="SourceGraphic" in2="BackgroundImageFix" result="shape"/>
<feTurbulence type="fractalNoise" baseFrequency="0.94039720296859741 0.94039720296859741" stitchTiles="stitch" numOctaves="3" result="noise" seed="2548" />
<feColorMatrix in="noise" type="luminanceToAlpha" result="alphaNoise" />
<feComponentTransfer in="alphaNoise" result="coloredNoise1">
<feFuncA type="discrete" tableValues="1 1 1 1 1 1 1 1 1 1 1 1 1 1 1 1 1 1 1 1 1 1 1 1 1 1 1 1 1 1 1 1 1 1 1 1 1 1 1 1 1 1 1 1 1 1 1 1 1 1 1 0 0 0 0 0 0 0 0 0 0 0 0 0 0 0 0 0 0 0 0 0 0 0 0 0 0 0 0 0 0 0 0 0 0 0 0 0 0 0 0 0 0 0 0 0 0 0 0 0 "/>
</feComponentTransfer>
<feComposite operator="in" in2="shape" in="coloredNoise1" result="noise1Clipped" />
<feFlood flood-color="#4A6FFE" result="color1Flood" />
<feComposite operator="in" in2="noise1Clipped" in="color1Flood" result="color1" />
<feMerge result="effect1_noise_836_4748">
<feMergeNode in="shape" />
<feMergeNode in="color1" />
</feMerge>
</filter>
<filter id="filter6_n_836_4748" x="966" y="799.144" width="143" height="113" filterUnits="userSpaceOnUse" color-interpolation-filters="sRGB">
<feFlood flood-opacity="0" result="BackgroundImageFix"/>
<feBlend mode="normal" in="SourceGraphic" in2="BackgroundImageFix" result="shape"/>
<feTurbulence type="fractalNoise" baseFrequency="0.94039720296859741 0.94039720296859741" stitchTiles="stitch" numOctaves="3" result="noise" seed="2548" />
<feColorMatrix in="noise" type="luminanceToAlpha" result="alphaNoise" />
<feComponentTransfer in="alphaNoise" result="coloredNoise1">
<feFuncA type="discrete" tableValues="1 1 1 1 1 1 1 1 1 1 1 1 1 1 1 1 1 1 1 1 1 1 1 1 1 1 1 1 1 1 1 1 1 1 1 1 1 1 1 1 1 1 1 1 1 1 1 1 1 1 1 0 0 0 0 0 0 0 0 0 0 0 0 0 0 0 0 0 0 0 0 0 0 0 0 0 0 0 0 0 0 0 0 0 0 0 0 0 0 0 0 0 0 0 0 0 0 0 0 0 "/>
</feComponentTransfer>
<feComposite operator="in" in2="shape" in="coloredNoise1" result="noise1Clipped" />
<feFlood flood-color="#4A6FFE" result="color1Flood" />
<feComposite operator="in" in2="noise1Clipped" in="color1Flood" result="color1" />
<feMerge result="effect1_noise_836_4748">
<feMergeNode in="shape" />
<feMergeNode in="color1" />
</feMerge>
</filter>
<filter id="filter7_n_836_4748" x="1215.45" y="1516.92" width="166.344" height="150.598" filterUnits="userSpaceOnUse" color-interpolation-filters="sRGB">
<feFlood flood-opacity="0" result="BackgroundImageFix"/>
<feBlend mode="normal" in="SourceGraphic" in2="BackgroundImageFix" result="shape"/>
<feTurbulence type="fractalNoise" baseFrequency="1 1" stitchTiles="stitch" numOctaves="3" result="noise" seed="2548" />
<feColorMatrix in="noise" type="luminanceToAlpha" result="alphaNoise" />
<feComponentTransfer in="alphaNoise" result="coloredNoise1">
<feFuncA type="discrete" tableValues="1 1 1 1 1 1 1 1 1 1 1 1 1 1 1 1 1 1 1 1 1 1 1 1 1 1 1 1 1 1 1 1 1 1 1 1 1 1 1 1 1 1 1 1 1 1 1 1 1 1 1 0 0 0 0 0 0 0 0 0 0 0 0 0 0 0 0 0 0 0 0 0 0 0 0 0 0 0 0 0 0 0 0 0 0 0 0 0 0 0 0 0 0 0 0 0 0 0 0 0 "/>
</feComponentTransfer>
<feComposite operator="in" in2="shape" in="coloredNoise1" result="noise1Clipped" />
<feFlood flood-color="#4A6FFE" result="color1Flood" />
<feComposite operator="in" in2="noise1Clipped" in="color1Flood" result="color1" />
<feMerge result="effect1_noise_836_4748">
<feMergeNode in="shape" />
<feMergeNode in="color1" />
</feMerge>
</filter>
<filter id="filter8_n_836_4748" x="867.141" y="1605.84" width="170.145" height="132.302" filterUnits="userSpaceOnUse" color-interpolation-filters="sRGB">
<feFlood flood-opacity="0" result="BackgroundImageFix"/>
<feBlend mode="normal" in="SourceGraphic" in2="BackgroundImageFix" result="shape"/>
<feTurbulence type="fractalNoise" baseFrequency="1 1" stitchTiles="stitch" numOctaves="3" result="noise" seed="2548" />
<feColorMatrix in="noise" type="luminanceToAlpha" result="alphaNoise" />
<feComponentTransfer in="alphaNoise" result="coloredNoise1">
<feFuncA type="discrete" tableValues="1 1 1 1 1 1 1 1 1 1 1 1 1 1 1 1 1 1 1 1 1 1 1 1 1 1 1 1 1 1 1 1 1 1 1 1 1 1 1 1 1 1 1 1 1 1 1 1 1 1 1 0 0 0 0 0 0 0 0 0 0 0 0 0 0 0 0 0 0 0 0 0 0 0 0 0 0 0 0 0 0 0 0 0 0 0 0 0 0 0 0 0 0 0 0 0 0 0 0 0 "/>
</feComponentTransfer>
<feComposite operator="in" in2="shape" in="coloredNoise1" result="noise1Clipped" />
<feFlood flood-color="#4A6FFE" result="color1Flood" />
<feComposite operator="in" in2="noise1Clipped" in="color1Flood" result="color1" />
<feMerge result="effect1_noise_836_4748">
<feMergeNode in="shape" />
<feMergeNode in="color1" />
</feMerge>
</filter>
<filter id="filter9_n_836_4748" x="407" y="204" width="2860" height="2860" filterUnits="userSpaceOnUse" color-interpolation-filters="sRGB">
<feFlood flood-opacity="0" result="BackgroundImageFix"/>
<feBlend mode="normal" in="SourceGraphic" in2="BackgroundImageFix" result="shape"/>
<feTurbulence type="fractalNoise" baseFrequency="2 2" stitchTiles="stitch" numOctaves="3" result="noise" seed="5240" />
<feColorMatrix in="noise" type="luminanceToAlpha" result="alphaNoise" />
<feComponentTransfer in="alphaNoise" result="coloredNoise1">
<feFuncA type="discrete" tableValues="1 1 1 1 1 1 1 1 1 1 1 1 1 1 1 1 1 1 1 1 1 1 1 1 1 1 1 1 1 1 1 1 1 1 1 1 1 1 1 1 1 1 1 1 1 1 1 1 1 1 1 0 0 0 0 0 0 0 0 0 0 0 0 0 0 0 0 0 0 0 0 0 0 0 0 0 0 0 0 0 0 0 0 0 0 0 0 0 0 0 0 0 0 0 0 0 0 0 0 0 "/>
</feComponentTransfer>
<feComposite operator="in" in2="shape" in="coloredNoise1" result="noise1Clipped" />
<feFlood flood-color="rgba(0, 0, 0, 0.25)" result="color1Flood" />
<feComposite operator="in" in2="noise1Clipped" in="color1Flood" result="color1" />
<feMerge result="effect1_noise_836_4748">
<feMergeNode in="shape" />
<feMergeNode in="color1" />
</feMerge>
</filter>
<filter id="filter10_n_836_4748" x="1627.05" y="1867.8" width="533.453" height="155.796" filterUnits="userSpaceOnUse" color-interpolation-filters="sRGB">
<feFlood flood-opacity="0" result="BackgroundImageFix"/>
<feBlend mode="normal" in="SourceGraphic" in2="BackgroundImageFix" result="shape"/>
<feTurbulence type="fractalNoise" baseFrequency="1 1" stitchTiles="stitch" numOctaves="3" result="noise" seed="2548" />
<feColorMatrix in="noise" type="luminanceToAlpha" result="alphaNoise" />
<feComponentTransfer in="alphaNoise" result="coloredNoise1">
<feFuncA type="discrete" tableValues="1 1 1 1 1 1 1 1 1 1 1 1 1 1 1 1 1 1 1 1 1 1 1 1 1 1 1 1 1 1 1 1 1 1 1 1 1 1 1 1 1 1 1 1 1 1 1 1 1 1 1 0 0 0 0 0 0 0 0 0 0 0 0 0 0 0 0 0 0 0 0 0 0 0 0 0 0 0 0 0 0 0 0 0 0 0 0 0 0 0 0 0 0 0 0 0 0 0 0 0 "/>
</feComponentTransfer>
<feComposite operator="in" in2="shape" in="coloredNoise1" result="noise1Clipped" />
<feFlood flood-color="#4A6FFE" result="color1Flood" />
<feComposite operator="in" in2="noise1Clipped" in="color1Flood" result="color1" />
<feMerge result="effect1_noise_836_4748">
<feMergeNode in="shape" />
<feMergeNode in="color1" />
</feMerge>
</filter>
<filter id="filter11_n_836_4748" x="1636.92" y="1827.11" width="496.141" height="244.377" filterUnits="userSpaceOnUse" color-interpolation-filters="sRGB">
<feFlood flood-opacity="0" result="BackgroundImageFix"/>
<feBlend mode="normal" in="SourceGraphic" in2="BackgroundImageFix" result="shape"/>
<feTurbulence type="fractalNoise" baseFrequency="1 1" stitchTiles="stitch" numOctaves="3" result="noise" seed="2548" />
<feColorMatrix in="noise" type="luminanceToAlpha" result="alphaNoise" />
<feComponentTransfer in="alphaNoise" result="coloredNoise1">
<feFuncA type="discrete" tableValues="1 1 1 1 1 1 1 1 1 1 1 1 1 1 1 1 1 1 1 1 1 1 1 1 1 1 1 1 1 1 1 1 1 1 1 1 1 1 1 1 1 1 1 1 1 1 1 1 1 1 1 0 0 0 0 0 0 0 0 0 0 0 0 0 0 0 0 0 0 0 0 0 0 0 0 0 0 0 0 0 0 0 0 0 0 0 0 0 0 0 0 0 0 0 0 0 0 0 0 0 "/>
</feComponentTransfer>
<feComposite operator="in" in2="shape" in="coloredNoise1" result="noise1Clipped" />
<feFlood flood-color="#4A6FFE" result="color1Flood" />
<feComposite operator="in" in2="noise1Clipped" in="color1Flood" result="color1" />
<feMerge result="effect1_noise_836_4748">
<feMergeNode in="shape" />
<feMergeNode in="color1" />
</feMerge>
</filter>
<filter id="filter12_n_836_4748" x="1790.53" y="1803.93" width="188.941" height="290.721" filterUnits="userSpaceOnUse" color-interpolation-filters="sRGB">
<feFlood flood-opacity="0" result="BackgroundImageFix"/>
<feBlend mode="normal" in="SourceGraphic" in2="BackgroundImageFix" result="shape"/>
<feTurbulence type="fractalNoise" baseFrequency="1 1" stitchTiles="stitch" numOctaves="3" result="noise" seed="2548" />
<feColorMatrix in="noise" type="luminanceToAlpha" result="alphaNoise" />
<feComponentTransfer in="alphaNoise" result="coloredNoise1">
<feFuncA type="discrete" tableValues="1 1 1 1 1 1 1 1 1 1 1 1 1 1 1 1 1 1 1 1 1 1 1 1 1 1 1 1 1 1 1 1 1 1 1 1 1 1 1 1 1 1 1 1 1 1 1 1 1 1 1 0 0 0 0 0 0 0 0 0 0 0 0 0 0 0 0 0 0 0 0 0 0 0 0 0 0 0 0 0 0 0 0 0 0 0 0 0 0 0 0 0 0 0 0 0 0 0 0 0 "/>
</feComponentTransfer>
<feComposite operator="in" in2="shape" in="coloredNoise1" result="noise1Clipped" />
<feFlood flood-color="#4A6FFE" result="color1Flood" />
<feComposite operator="in" in2="noise1Clipped" in="color1Flood" result="color1" />
<feMerge result="effect1_noise_836_4748">
<feMergeNode in="shape" />
<feMergeNode in="color1" />
</feMerge>
</filter>
<filter id="filter13_n_836_4748" x="1837.23" y="1796.54" width="95.543" height="305.51" filterUnits="userSpaceOnUse" color-interpolation-filters="sRGB">
<feFlood flood-opacity="0" result="BackgroundImageFix"/>
<feBlend mode="normal" in="SourceGraphic" in2="BackgroundImageFix" result="shape"/>
<feTurbulence type="fractalNoise" baseFrequency="1 1" stitchTiles="stitch" numOctaves="3" result="noise" seed="2548" />
<feColorMatrix in="noise" type="luminanceToAlpha" result="alphaNoise" />
<feComponentTransfer in="alphaNoise" result="coloredNoise1">
<feFuncA type="discrete" tableValues="1 1 1 1 1 1 1 1 1 1 1 1 1 1 1 1 1 1 1 1 1 1 1 1 1 1 1 1 1 1 1 1 1 1 1 1 1 1 1 1 1 1 1 1 1 1 1 1 1 1 1 0 0 0 0 0 0 0 0 0 0 0 0 0 0 0 0 0 0 0 0 0 0 0 0 0 0 0 0 0 0 0 0 0 0 0 0 0 0 0 0 0 0 0 0 0 0 0 0 0 "/>
</feComponentTransfer>
<feComposite operator="in" in2="shape" in="coloredNoise1" result="noise1Clipped" />
<feFlood flood-color="#4A6FFE" result="color1Flood" />
<feComposite operator="in" in2="noise1Clipped" in="color1Flood" result="color1" />
<feMerge result="effect1_noise_836_4748">
<feMergeNode in="shape" />
<feMergeNode in="color1" />
</feMerge>
</filter>
<filter id="filter14_n_836_4748" x="2456.93" y="1537.91" width="117.266" height="161.78" filterUnits="userSpaceOnUse" color-interpolation-filters="sRGB">
<feFlood flood-opacity="0" result="BackgroundImageFix"/>
<feBlend mode="normal" in="SourceGraphic" in2="BackgroundImageFix" result="shape"/>
<feTurbulence type="fractalNoise" baseFrequency="1.0559861660003662 1.0559861660003662" stitchTiles="stitch" numOctaves="3" result="noise" seed="2548" />
<feColorMatrix in="noise" type="luminanceToAlpha" result="alphaNoise" />
<feComponentTransfer in="alphaNoise" result="coloredNoise1">
<feFuncA type="discrete" tableValues="1 1 1 1 1 1 1 1 1 1 1 1 1 1 1 1 1 1 1 1 1 1 1 1 1 1 1 1 1 1 1 1 1 1 1 1 1 1 1 1 1 1 1 1 1 1 1 1 1 1 1 0 0 0 0 0 0 0 0 0 0 0 0 0 0 0 0 0 0 0 0 0 0 0 0 0 0 0 0 0 0 0 0 0 0 0 0 0 0 0 0 0 0 0 0 0 0 0 0 0 "/>
</feComponentTransfer>
<feComposite operator="in" in2="shape" in="coloredNoise1" result="noise1Clipped" />
<feFlood flood-color="#4A6FFE" result="color1Flood" />
<feComposite operator="in" in2="noise1Clipped" in="color1Flood" result="color1" />
<feMerge result="effect1_noise_836_4748">
<feMergeNode in="shape" />
<feMergeNode in="color1" />
</feMerge>
</filter>
<filter id="filter15_n_836_4748" x="2507.9" y="1426.68" width="420.441" height="304.055" filterUnits="userSpaceOnUse" color-interpolation-filters="sRGB">
<feFlood flood-opacity="0" result="BackgroundImageFix"/>
<feBlend mode="normal" in="SourceGraphic" in2="BackgroundImageFix" result="shape"/>
<feTurbulence type="fractalNoise" baseFrequency="1.0559861660003662 1.0559861660003662" stitchTiles="stitch" numOctaves="3" result="noise" seed="2548" />
<feColorMatrix in="noise" type="luminanceToAlpha" result="alphaNoise" />
<feComponentTransfer in="alphaNoise" result="coloredNoise1">
<feFuncA type="discrete" tableValues="1 1 1 1 1 1 1 1 1 1 1 1 1 1 1 1 1 1 1 1 1 1 1 1 1 1 1 1 1 1 1 1 1 1 1 1 1 1 1 1 1 1 1 1 1 1 1 1 1 1 1 0 0 0 0 0 0 0 0 0 0 0 0 0 0 0 0 0 0 0 0 0 0 0 0 0 0 0 0 0 0 0 0 0 0 0 0 0 0 0 0 0 0 0 0 0 0 0 0 0 "/>
</feComponentTransfer>
<feComposite operator="in" in2="shape" in="coloredNoise1" result="noise1Clipped" />
<feFlood flood-color="#4A6FFE" result="color1Flood" />
<feComposite operator="in" in2="noise1Clipped" in="color1Flood" result="color1" />
<feMerge result="effect1_noise_836_4748">
<feMergeNode in="shape" />
<feMergeNode in="color1" />
</feMerge>
</filter>
<filter id="filter16_n_836_4748" x="2702.23" y="1337.27" width="398.172" height="248.726" filterUnits="userSpaceOnUse" color-interpolation-filters="sRGB">
<feFlood flood-opacity="0" result="BackgroundImageFix"/>
<feBlend mode="normal" in="SourceGraphic" in2="BackgroundImageFix" result="shape"/>
<feTurbulence type="fractalNoise" baseFrequency="1.0559860467910767 1.0559860467910767" stitchTiles="stitch" numOctaves="3" result="noise" seed="2548" />
<feColorMatrix in="noise" type="luminanceToAlpha" result="alphaNoise" />
<feComponentTransfer in="alphaNoise" result="coloredNoise1">
<feFuncA type="discrete" tableValues="1 1 1 1 1 1 1 1 1 1 1 1 1 1 1 1 1 1 1 1 1 1 1 1 1 1 1 1 1 1 1 1 1 1 1 1 1 1 1 1 1 1 1 1 1 1 1 1 1 1 1 0 0 0 0 0 0 0 0 0 0 0 0 0 0 0 0 0 0 0 0 0 0 0 0 0 0 0 0 0 0 0 0 0 0 0 0 0 0 0 0 0 0 0 0 0 0 0 0 0 "/>
</feComponentTransfer>
<feComposite operator="in" in2="shape" in="coloredNoise1" result="noise1Clipped" />
<feFlood flood-color="#4A6FFE" result="color1Flood" />
<feComposite operator="in" in2="noise1Clipped" in="color1Flood" result="color1" />
<feMerge result="effect1_noise_836_4748">
<feMergeNode in="shape" />
<feMergeNode in="color1" />
</feMerge>
</filter>
<filter id="filter17_n_836_4748" x="2930.35" y="1338.53" width="246.672" height="305.093" filterUnits="userSpaceOnUse" color-interpolation-filters="sRGB">
<feFlood flood-opacity="0" result="BackgroundImageFix"/>
<feBlend mode="normal" in="SourceGraphic" in2="BackgroundImageFix" result="shape"/>
<feTurbulence type="fractalNoise" baseFrequency="1.0559860467910767 1.0559860467910767" stitchTiles="stitch" numOctaves="3" result="noise" seed="2548" />
<feColorMatrix in="noise" type="luminanceToAlpha" result="alphaNoise" />
<feComponentTransfer in="alphaNoise" result="coloredNoise1">
<feFuncA type="discrete" tableValues="1 1 1 1 1 1 1 1 1 1 1 1 1 1 1 1 1 1 1 1 1 1 1 1 1 1 1 1 1 1 1 1 1 1 1 1 1 1 1 1 1 1 1 1 1 1 1 1 1 1 1 0 0 0 0 0 0 0 0 0 0 0 0 0 0 0 0 0 0 0 0 0 0 0 0 0 0 0 0 0 0 0 0 0 0 0 0 0 0 0 0 0 0 0 0 0 0 0 0 0 "/>
</feComponentTransfer>
<feComposite operator="in" in2="shape" in="coloredNoise1" result="noise1Clipped" />
<feFlood flood-color="#4A6FFE" result="color1Flood" />
<feComposite operator="in" in2="noise1Clipped" in="color1Flood" result="color1" />
<feMerge result="effect1_noise_836_4748">
<feMergeNode in="shape" />
<feMergeNode in="color1" />
</feMerge>
</filter>
<filter id="filter18_n_836_4748" x="2800.71" y="940.374" width="349.547" height="338.122" filterUnits="userSpaceOnUse" color-interpolation-filters="sRGB">
<feFlood flood-opacity="0" result="BackgroundImageFix"/>
<feBlend mode="normal" in="SourceGraphic" in2="BackgroundImageFix" result="shape"/>
<feTurbulence type="fractalNoise" baseFrequency="1.057819128036499 1.057819128036499" stitchTiles="stitch" numOctaves="3" result="noise" seed="2548" />
<feColorMatrix in="noise" type="luminanceToAlpha" result="alphaNoise" />
<feComponentTransfer in="alphaNoise" result="coloredNoise1">
<feFuncA type="discrete" tableValues="1 1 1 1 1 1 1 1 1 1 1 1 1 1 1 1 1 1 1 1 1 1 1 1 1 1 1 1 1 1 1 1 1 1 1 1 1 1 1 1 1 1 1 1 1 1 1 1 1 1 1 0 0 0 0 0 0 0 0 0 0 0 0 0 0 0 0 0 0 0 0 0 0 0 0 0 0 0 0 0 0 0 0 0 0 0 0 0 0 0 0 0 0 0 0 0 0 0 0 0 "/>
</feComponentTransfer>
<feComposite operator="in" in2="shape" in="coloredNoise1" result="noise1Clipped" />
<feFlood flood-color="#4A6FFE" result="color1Flood" />
<feComposite operator="in" in2="noise1Clipped" in="color1Flood" result="color1" />
<feMerge result="effect1_noise_836_4748">
<feMergeNode in="shape" />
<feMergeNode in="color1" />
</feMerge>
</filter>
<filter id="filter19_n_836_4748" x="2951.19" y="1703.51" width="175.574" height="77.9831" filterUnits="userSpaceOnUse" color-interpolation-filters="sRGB">
<feFlood flood-opacity="0" result="BackgroundImageFix"/>
<feBlend mode="normal" in="SourceGraphic" in2="BackgroundImageFix" result="shape"/>
<feTurbulence type="fractalNoise" baseFrequency="1.0559861660003662 1.0559861660003662" stitchTiles="stitch" numOctaves="3" result="noise" seed="2548" />
<feColorMatrix in="noise" type="luminanceToAlpha" result="alphaNoise" />
<feComponentTransfer in="alphaNoise" result="coloredNoise1">
<feFuncA type="discrete" tableValues="1 1 1 1 1 1 1 1 1 1 1 1 1 1 1 1 1 1 1 1 1 1 1 1 1 1 1 1 1 1 1 1 1 1 1 1 1 1 1 1 1 1 1 1 1 1 1 1 1 1 1 0 0 0 0 0 0 0 0 0 0 0 0 0 0 0 0 0 0 0 0 0 0 0 0 0 0 0 0 0 0 0 0 0 0 0 0 0 0 0 0 0 0 0 0 0 0 0 0 0 "/>
</feComponentTransfer>
<feComposite operator="in" in2="shape" in="coloredNoise1" result="noise1Clipped" />
<feFlood flood-color="#4A6FFE" result="color1Flood" />
<feComposite operator="in" in2="noise1Clipped" in="color1Flood" result="color1" />
<feMerge result="effect1_noise_836_4748">
<feMergeNode in="shape" />
<feMergeNode in="color1" />
</feMerge>
</filter>
<filter id="filter20_n_836_4748" x="2919.6" y="1328.17" width="257.02" height="392.322" filterUnits="userSpaceOnUse" color-interpolation-filters="sRGB">
<feFlood flood-opacity="0" result="BackgroundImageFix"/>
<feBlend mode="normal" in="SourceGraphic" in2="BackgroundImageFix" result="shape"/>
<feTurbulence type="fractalNoise" baseFrequency="1.0559861660003662 1.0559861660003662" stitchTiles="stitch" numOctaves="3" result="noise" seed="2548" />
<feColorMatrix in="noise" type="luminanceToAlpha" result="alphaNoise" />
<feComponentTransfer in="alphaNoise" result="coloredNoise1">
<feFuncA type="discrete" tableValues="1 1 1 1 1 1 1 1 1 1 1 1 1 1 1 1 1 1 1 1 1 1 1 1 1 1 1 1 1 1 1 1 1 1 1 1 1 1 1 1 1 1 1 1 1 1 1 1 1 1 1 0 0 0 0 0 0 0 0 0 0 0 0 0 0 0 0 0 0 0 0 0 0 0 0 0 0 0 0 0 0 0 0 0 0 0 0 0 0 0 0 0 0 0 0 0 0 0 0 0 "/>
</feComponentTransfer>
<feComposite operator="in" in2="shape" in="coloredNoise1" result="noise1Clipped" />
<feFlood flood-color="#4A6FFE" result="color1Flood" />
<feComposite operator="in" in2="noise1Clipped" in="color1Flood" result="color1" />
<feMerge result="effect1_noise_836_4748">
<feMergeNode in="shape" />
<feMergeNode in="color1" />
</feMerge>
</filter>
<linearGradient id="paint0_linear_836_4748" x1="2578.86" y1="427.436" x2="2578.86" y2="1309.71" gradientUnits="userSpaceOnUse">
<stop stop-color="#E2FF3C"/>
<stop offset="1" stop-color="#A4B7FF"/>
</linearGradient>
<linearGradient id="paint1_linear_836_4748" x1="2459.74" y1="406.081" x2="2353.52" y2="675.597" gradientUnits="userSpaceOnUse">
<stop stop-color="#E2FF3C"/>
<stop offset="1" stop-color="#A4B7FF"/>
</linearGradient>
<linearGradient id="paint2_linear_836_4748" x1="2336.65" y1="46.3268" x2="2390.39" y2="90.851" gradientUnits="userSpaceOnUse">
<stop stop-color="#E2FF3C"/>
<stop offset="1" stop-color="#A4B7FF"/>
</linearGradient>
<linearGradient id="paint3_linear_836_4748" x1="640.888" y1="955" x2="640.888" y2="1273.96" gradientUnits="userSpaceOnUse">
<stop stop-color="#A4B7FF"/>
<stop offset="1" stop-color="#E2FF3C"/>
</linearGradient>
<linearGradient id="paint4_linear_836_4748" x1="1253.84" y1="1556.44" x2="1352.2" y2="1626.13" gradientUnits="userSpaceOnUse">
<stop stop-color="#A4B7FF"/>
<stop offset="1" stop-color="#E2FF3C"/>
</linearGradient>
<linearGradient id="paint5_linear_836_4748" x1="972.954" y1="1612.82" x2="935.287" y2="1727.33" gradientUnits="userSpaceOnUse">
<stop stop-color="#E2FF3C"/>
<stop offset="1" stop-color="#A4B7FF"/>
</linearGradient>
<linearGradient id="paint6_linear_836_4748" x1="1653.82" y1="1920.32" x2="1653.82" y2="2453.5" gradientUnits="userSpaceOnUse">
<stop stop-color="#E2FF3C"/>
<stop offset="1" stop-color="#A4B7FF"/>
</linearGradient>
<linearGradient id="paint7_linear_836_4748" x1="26.7677" y1="0" x2="26.7677" y2="514.197" gradientUnits="userSpaceOnUse">
<stop stop-color="#E2FF3C"/>
<stop offset="1" stop-color="#A4B7FF"/>
</linearGradient>
<linearGradient id="paint8_linear_836_4748" x1="26.7677" y1="0" x2="26.7677" y2="300.965" gradientUnits="userSpaceOnUse">
<stop stop-color="#E2FF3C"/>
<stop offset="1" stop-color="#A4B7FF"/>
</linearGradient>
<linearGradient id="paint9_linear_836_4748" x1="1863.99" y1="1804.11" x2="1863.99" y2="2105.07" gradientUnits="userSpaceOnUse">
<stop stop-color="#E2FF3C"/>
<stop offset="1" stop-color="#A4B7FF"/>
</linearGradient>
<radialGradient id="paint10_radial_836_4748" cx="0" cy="0" r="1" gradientUnits="userSpaceOnUse" gradientTransform="translate(1837 1634) rotate(6.52994) scale(1017.11)">
<stop stop-color="#FA6506"/>
<stop offset="1" stop-color="#FA6506" stop-opacity="0"/>
</radialGradient>
<linearGradient id="paint11_linear_836_4748" x1="2565.02" y1="1576.96" x2="2501.5" y2="1609.01" gradientUnits="userSpaceOnUse">
<stop stop-color="#E2FF3C"/>
<stop offset="1" stop-color="#A4B7FF"/>
</linearGradient>
<linearGradient id="paint12_linear_836_4748" x1="3022.48" y1="1674.72" x2="3026.83" y2="1745.73" gradientUnits="userSpaceOnUse">
<stop stop-color="#E2FF3C"/>
<stop offset="1" stop-color="#A4B7FF"/>
</linearGradient>
</defs>
</svg>
