<svg width="907" height="145" viewBox="0 0 907 145" fill="none" xmlns="http://www.w3.org/2000/svg">
<path d="M156.728 134.436C154.572 134.322 152.474 134.152 150.432 133.925C148.73 133.698 147.028 133.528 145.326 133.415C143.738 133.301 142.547 133.245 141.753 133.245C137.328 133.245 132.904 133.301 128.479 133.415C124.055 133.642 119.687 133.982 115.376 134.436C115.49 129.671 115.546 125.02 115.546 120.482C115.66 115.83 115.717 111.122 115.717 106.358C115.717 97.849 115.546 89.3972 115.206 81.0021C114.979 72.6069 114.752 64.2118 114.525 55.8167L78.7894 136.648C73.5708 122.467 67.9551 108.57 61.9424 94.9561C56.0431 81.229 49.8602 67.5585 43.3937 53.9448L46.1165 138.009C44.8685 138.009 43.5639 137.953 42.2025 137.839C40.9546 137.839 39.6499 137.839 38.2886 137.839C33.9776 137.839 29.7233 138.009 25.5257 138.35C21.4416 138.69 17.3008 139.031 13.1032 139.371C13.6704 128.82 14.2377 118.326 14.8049 107.889C15.3722 97.452 15.6558 86.9581 15.6558 76.4074C15.6558 64.0416 15.5423 51.7326 15.3154 39.4802C15.202 27.2279 15.0885 14.9188 14.9751 2.55304C23.1433 2.55304 31.0846 2.32614 38.7991 1.87235C46.627 1.41856 54.625 0.794602 62.7933 0.00046894C65.516 9.07628 68.2955 18.0954 71.1316 27.0577C74.0813 35.9066 77.2011 44.7555 80.4911 53.6045C84.008 45.2093 87.9786 36.9844 92.4031 28.9296C96.941 20.8748 101.536 12.8768 106.187 4.93544C113.901 4.70854 121.502 4.48165 128.99 4.25475C136.591 4.02786 144.249 3.85769 151.963 3.74424C152.303 13.9545 152.7 24.0514 153.154 34.0348C153.722 44.0181 154.232 54.115 154.686 64.3253C155.026 72.38 155.31 80.4348 155.537 88.4896C155.877 96.5444 156.161 104.542 156.388 112.484L156.728 126.778V134.436ZM298.31 54.7957C298.31 64.3253 297.97 73.7981 297.289 83.2143C296.609 92.6304 295.928 102.047 295.247 111.463C282.541 112.597 269.892 113.562 257.299 114.356C244.706 115.15 232.057 115.547 219.351 115.547C218.216 115.547 216.118 115.547 213.055 115.547C209.992 115.433 206.758 115.32 203.355 115.207C199.951 114.98 196.718 114.753 193.655 114.526C190.592 114.185 188.55 113.732 187.529 113.164C183.785 111.122 181.176 108.57 179.701 105.507C178.226 102.33 177.489 98.7566 177.489 94.7859C177.489 93.4246 177.546 91.6094 177.659 89.3405C177.772 87.0715 177.999 84.6891 178.34 82.1933C178.68 79.6974 179.134 77.3717 179.701 75.2162C180.268 73.0607 180.949 71.4725 181.743 70.4514C182.764 69.0901 185.09 67.9556 188.72 67.048C192.35 66.027 196.661 65.2328 201.653 64.6656C206.758 64.0984 212.204 63.6446 217.99 63.3042C223.889 62.9639 229.505 62.737 234.837 62.6235C240.169 62.3967 244.933 62.2832 249.131 62.2832C253.329 62.2832 256.335 62.2832 258.15 62.2832C258.49 59.7874 258.661 57.3482 258.661 54.9658C258.661 54.7389 258.661 54.1717 258.661 53.2641C258.661 52.2431 258.604 51.6191 258.49 51.3922C258.15 50.7115 257.072 50.1443 255.257 49.6905C253.442 49.2367 251.173 48.8964 248.45 48.6695C245.841 48.4426 242.948 48.2724 239.772 48.159C236.708 47.9321 233.702 47.8186 230.752 47.8186C227.803 47.8186 225.194 47.8186 222.925 47.8186C220.656 47.8186 219.011 47.8186 217.99 47.8186C210.842 47.8186 203.695 47.9888 196.548 48.3291C189.401 48.556 182.254 48.7829 175.106 49.0098C175.56 44.6988 175.901 40.3311 176.127 35.9066C176.468 31.4822 176.524 27.1144 176.298 22.8034C184.579 21.3286 192.861 20.3076 201.143 19.7404C209.538 19.0597 217.99 18.7193 226.498 18.7193C229.561 18.7193 232.908 18.776 236.538 18.8895C240.169 18.8895 243.799 19.0029 247.429 19.2298C251.06 19.3433 254.633 19.5702 258.15 19.9105C261.78 20.2509 265.127 20.7047 268.19 21.2719C271.367 21.8391 274.486 22.8602 277.55 24.335C280.726 25.8098 283.676 27.625 286.398 29.7805C289.121 31.936 291.504 34.4318 293.546 37.268C295.588 39.9908 297.063 42.9404 297.97 46.1169C298.084 46.4573 298.14 47.0245 298.14 47.8186C298.254 48.6128 298.31 49.5203 298.31 50.5414C298.31 51.449 298.31 52.2998 298.31 53.0939C298.31 53.8881 298.31 54.4553 298.31 54.7957ZM260.362 94.7859V73.004C257.072 72.8906 253.782 72.8338 250.492 72.8338C247.202 72.7204 243.912 72.6637 240.622 72.6637C239.942 72.6637 238.013 72.7204 234.837 72.8338C231.773 72.8338 228.427 72.9473 224.796 73.1742C221.28 73.4011 218.046 73.6847 215.097 74.025C212.147 74.3654 210.445 74.8759 209.992 75.5566C209.424 76.4642 209.027 77.4285 208.8 78.4495C208.687 79.3571 208.63 80.3214 208.63 81.3424C208.63 82.1365 208.687 83.2143 208.8 84.5757C208.914 85.937 209.084 87.3551 209.311 88.8299C209.651 90.3048 209.992 91.6661 210.332 92.9141C210.672 94.162 211.126 95.0696 211.693 95.6368C212.147 96.204 212.884 96.6578 213.905 96.9982C215.04 97.2251 216.231 97.452 217.479 97.6789C218.727 97.7923 219.975 97.9058 221.223 98.0192C222.471 98.0192 223.435 98.0192 224.116 98.0192C226.838 98.0192 229.731 97.9058 232.794 97.6789C235.971 97.452 239.148 97.2251 242.324 96.9982C245.614 96.6578 248.791 96.3175 251.854 95.9771C254.917 95.5234 257.753 95.1263 260.362 94.7859ZM437 73.5145C437 75.1028 436.943 76.8612 436.83 78.7898C436.83 80.605 436.66 82.4769 436.32 84.4055C436.093 86.3341 435.696 88.206 435.128 90.0211C434.675 91.7229 433.994 93.2544 433.086 94.6158C431.158 97.452 429.342 99.8911 427.641 101.933C425.939 103.862 424.067 105.507 422.025 106.868C420.096 108.116 417.884 109.137 415.388 109.931C412.893 110.725 409.943 111.349 406.54 111.803C401.434 112.597 396.386 113.335 391.394 114.015C386.403 114.583 381.354 114.866 376.249 114.866C373.98 114.866 371.654 114.753 369.272 114.526C366.89 114.299 364.677 113.562 362.635 112.314C361.501 111.746 360.253 111.009 358.892 110.101C357.644 109.08 356.396 108.059 355.148 107.038C353.9 105.904 352.652 104.826 351.404 103.805C350.269 102.671 349.248 101.706 348.341 100.912L347.32 143.625C344.143 143.852 340.967 143.909 337.79 143.795C334.614 143.795 331.38 143.795 328.09 143.795C326.162 143.795 324.29 143.795 322.475 143.795C320.773 143.909 318.958 144.022 317.029 144.136C317.483 134.379 317.88 124.679 318.221 115.036C318.674 105.28 318.901 95.5801 318.901 85.937V83.895C318.901 73.1175 318.618 62.3967 318.05 51.7326C317.483 41.0685 316.973 30.3477 316.519 19.5702C322.191 19.1164 327.807 18.7193 333.366 18.379C338.925 18.0386 344.54 17.6416 350.213 17.1878L351.404 26.2069C359.232 25.2993 367.06 24.5619 374.888 23.9946C382.829 23.314 390.77 22.9736 398.712 22.9736C399.733 22.9736 400.81 22.9736 401.945 22.9736C403.193 22.8602 404.327 22.9169 405.348 23.1438C408.071 23.711 410.851 24.4484 413.687 25.356C416.523 26.1501 419.189 27.2279 421.685 28.5893C424.181 29.9506 426.393 31.7091 428.321 33.8646C430.25 35.9066 431.725 38.4025 432.746 41.3521C433.427 43.6211 434.051 46.1169 434.618 48.8397C435.185 51.5624 435.639 54.3986 435.979 57.3482C436.32 60.1844 436.546 63.0206 436.66 65.8568C436.887 68.5795 437 71.1321 437 73.5145ZM403.476 70.4514C403.476 69.0901 403.363 67.6152 403.136 66.027C402.909 64.4387 402.342 63.1341 401.434 62.113C399.165 59.5037 396.329 57.5184 392.926 56.157C389.522 54.6822 386.176 53.9448 382.886 53.9448C380.163 53.9448 377.213 54.2284 374.037 54.7957C370.86 55.2495 367.684 55.9301 364.507 56.8377C361.331 57.6319 358.211 58.5962 355.148 59.7306C352.085 60.7517 349.305 61.7727 346.809 62.7937L348.341 85.5967C352.538 86.8446 357.02 87.9791 361.784 89.0001C366.663 90.0211 371.257 90.5317 375.568 90.5317C376.703 90.5317 378.461 90.5884 380.844 90.7018C383.226 90.7018 385.665 90.6451 388.161 90.5317C390.77 90.3048 393.153 90.0211 395.308 89.6808C397.577 89.3405 399.052 88.7165 399.733 87.8089C400.3 87.1282 400.81 86.0505 401.264 84.5757C401.718 82.9874 402.115 81.3424 402.455 79.6407C402.796 77.8255 403.023 76.1238 403.136 74.5355C403.363 72.8338 403.476 71.4725 403.476 70.4514ZM553.397 41.8626C543.527 42.4299 533.771 42.8837 524.128 43.224C514.598 43.5643 504.955 44.1883 495.199 45.0959L496.56 59.7306L524.809 61.6025L529.573 78.6197C524.468 79.7541 519.306 80.6617 514.088 81.3424C508.983 81.9096 503.878 82.7038 498.772 83.7248C499.907 92.2334 500.701 100.742 501.155 109.251C501.609 117.646 501.835 126.097 501.835 134.606L457.08 136.138C457.648 122.864 457.988 109.704 458.101 96.6578C458.215 83.4979 458.272 70.2813 458.272 57.0079V41.8626V7.65818C464.852 7.54473 471.318 7.43129 477.671 7.31784C484.138 7.09094 490.661 6.9775 497.241 6.9775C506.09 6.9775 514.939 7.20439 523.788 7.65818C532.637 7.99853 541.542 8.39559 550.505 8.84938C551.185 14.2949 551.809 19.7971 552.376 25.356C553.057 30.8015 553.397 36.3037 553.397 41.8626ZM604.449 0.681155C603.541 11.6856 602.634 22.6333 601.726 33.5242C600.932 44.4152 600.251 55.3629 599.684 66.3673C599.117 76.3507 598.493 86.2774 597.812 96.1473C597.245 105.904 596.678 115.774 596.11 125.757L570.074 127.119C570.074 116.795 570.074 106.584 570.074 96.4877C570.188 86.2774 570.131 76.0104 569.904 65.6866C569.677 55.3629 569.223 45.1526 568.543 35.0558C567.862 24.8455 567.181 14.5785 566.501 4.25475L604.449 0.681155ZM744.84 64.1551C744.84 65.0627 744.84 65.9703 744.84 66.8778C744.84 67.672 744.784 68.5228 744.67 69.4304C744.557 71.0187 744.273 73.628 743.819 77.2583C743.365 80.8886 742.742 84.6891 741.947 88.6598C741.153 92.517 740.189 96.0906 739.054 99.3806C737.92 102.671 736.672 104.769 735.311 105.677C734.63 106.131 732.304 106.528 728.334 106.868C724.476 107.208 719.712 107.549 714.039 107.889C708.48 108.229 702.411 108.513 695.831 108.74C689.251 108.967 682.955 109.194 676.942 109.421C671.043 109.534 665.824 109.648 661.286 109.761C656.862 109.874 653.912 109.931 652.437 109.931C651.757 109.931 650.565 109.931 648.864 109.931C647.275 109.931 645.574 109.931 643.758 109.931C641.943 109.818 640.242 109.704 638.653 109.591C637.065 109.477 635.931 109.307 635.25 109.08C633.662 108.513 632.073 107.606 630.485 106.358C628.897 104.996 627.422 103.521 626.061 101.933C624.699 100.231 623.451 98.5297 622.317 96.828C621.296 95.0128 620.558 93.3111 620.105 91.7229C619.764 90.4749 619.481 88.603 619.254 86.1072C619.027 83.4979 618.857 80.8319 618.743 78.1091C618.63 75.273 618.516 72.5502 618.403 69.9409C618.403 67.3316 618.403 65.3463 618.403 63.9849C618.403 61.8294 618.46 58.8798 618.573 55.136C618.687 51.2788 619.027 47.3648 619.594 43.3942C620.161 39.4235 620.956 35.7365 621.977 32.333C623.111 28.8162 624.699 26.377 626.741 25.0157C627.649 24.4484 629.351 23.9379 631.846 23.4841C634.342 23.0303 637.292 22.6333 640.695 22.2929C644.099 21.9526 647.729 21.7257 651.586 21.6122C655.444 21.3853 659.187 21.2719 662.818 21.2719C666.561 21.1584 670.022 21.1017 673.198 21.1017C676.375 21.1017 678.927 21.1584 680.856 21.2719C682.558 21.3853 684.997 21.4988 688.173 21.6122C691.35 21.6122 694.867 21.669 698.724 21.7824C702.695 21.8959 706.779 22.1228 710.976 22.4631C715.174 22.69 719.088 23.0303 722.718 23.4841C726.348 23.9379 729.525 24.5619 732.248 25.356C735.084 26.0367 736.956 26.8876 737.863 27.9086C739.338 29.4968 740.529 31.8792 741.437 35.0558C742.344 38.2323 743.025 41.6357 743.479 45.2661C744.046 48.7829 744.386 52.2998 744.5 55.8167C744.727 59.2201 744.84 61.9996 744.84 64.1551ZM708.764 67.7287C708.764 66.3673 708.707 64.7791 708.594 62.9639C708.48 61.1487 708.31 59.3336 708.083 57.5184C707.856 55.5898 707.516 53.7746 707.062 52.0729C706.608 50.2578 706.041 48.7829 705.361 47.6485C704.453 46.1736 702.695 45.0392 700.085 44.245C697.476 43.4509 694.583 42.8837 691.406 42.5433C688.343 42.0895 685.28 41.8059 682.217 41.6925C679.268 41.579 677.055 41.5223 675.581 41.5223C674.786 41.5223 673.368 41.579 671.326 41.6925C669.284 41.6925 667.129 41.7492 664.86 41.8626C662.704 41.9761 660.662 42.203 658.734 42.5433C656.805 42.7702 655.557 43.0538 654.99 43.3942C653.969 44.0749 653.175 45.1526 652.607 46.6274C652.04 47.9888 651.586 49.5203 651.246 51.2221C651.019 52.9238 650.849 54.6255 650.735 56.3272C650.735 57.9155 650.735 59.2201 650.735 60.2411C650.735 61.2622 650.792 63.1341 650.906 65.8568C651.133 68.4661 651.359 71.3023 651.586 74.3654C651.927 77.315 652.324 80.0378 652.778 82.5336C653.231 85.0295 653.799 86.6177 654.479 87.2984C655.273 88.206 656.748 88.9434 658.904 89.5106C661.173 90.0779 663.555 90.5884 666.051 91.0422C668.66 91.3825 671.156 91.6661 673.538 91.893C675.921 92.0065 677.623 92.0632 678.644 92.0632C680.459 92.0632 682.614 92.0065 685.11 91.893C687.606 91.7796 690.102 91.496 692.598 91.0422C695.207 90.5884 697.646 89.9644 699.915 89.1703C702.184 88.3762 703.999 87.2984 705.361 85.937C706.155 85.1429 706.779 83.9517 707.232 82.3634C707.686 80.7752 708.027 79.0735 708.253 77.2583C708.48 75.4431 708.594 73.6847 708.594 71.983C708.707 70.1678 708.764 68.7497 708.764 67.7287ZM904.801 15.4861C901.511 31.4822 898.335 47.4216 895.272 63.3042C892.322 79.1869 889.146 95.1263 885.742 111.122L850.347 111.463L837.414 65.5165L807.804 111.463L769.175 114.356C768.267 106.528 767.303 98.6432 766.282 90.7018C765.261 82.7605 764.126 74.8759 762.878 67.048C761.631 58.8798 760.383 50.825 759.135 42.8837C757.887 34.8289 756.639 26.7741 755.391 18.7193L790.446 17.6983L801.678 70.9619C803.946 65.8568 806.272 60.8084 808.655 55.8167C811.037 50.825 813.419 45.7766 815.802 40.6714C818.298 34.9991 821.02 29.6103 823.97 24.5052L843.199 24.8455C846.489 33.1272 849.666 41.4088 852.729 49.6905C855.906 57.8587 859.309 65.9703 862.939 74.025C864.981 68.5795 866.74 63.5311 868.215 58.8798C869.803 54.115 871.221 49.4636 872.469 44.9257C873.717 40.2744 874.908 35.5663 876.042 30.8015C877.177 25.9232 878.311 20.6479 879.446 14.9756L904.801 15.4861Z" fill="white"/>
</svg>
