<svg width="48" height="48" viewBox="0 0 48 48" fill="none" xmlns="http://www.w3.org/2000/svg">
<path d="M28.0498 6.94027L31.4203 13.4053C31.671 13.8812 32.0309 14.2909 32.4704 14.6009C32.91 14.9109 33.4168 15.1124 33.9493 15.1888L41.0683 16.1638C44.8753 16.6888 46.3513 21.3823 43.5358 23.9923L38.6608 28.4908C38.2458 28.873 37.9342 29.354 37.7551 29.8891C37.576 30.4241 37.5351 30.9957 37.6363 31.5508L38.8258 38.1478C39.4873 41.8228 35.6638 44.6878 32.3083 43.0078L25.5043 39.6328C25.0359 39.4033 24.5213 39.2841 23.9998 39.2841C23.4782 39.2841 22.9636 39.4033 22.4953 39.6328L15.6913 43.0078C12.3343 44.6728 8.51226 41.8228 9.17376 38.1478L10.3633 31.5493C10.5733 30.4243 10.1833 29.2693 9.34026 28.4893L4.46376 23.9923C1.64826 21.3973 3.12426 16.6873 6.93126 16.1623L14.0503 15.1873C14.5843 15.1157 15.0931 14.9161 15.5334 14.6056C15.9737 14.295 16.3325 13.8828 16.5793 13.4038L19.9513 6.94027C21.6673 3.68527 26.3473 3.68527 28.0483 6.94027" fill="#FCD53F"/>
</svg>
